<?xml version="1.0" standalone="no"?>
<!DOCTYPE svg PUBLIC "-//W3C//DTD SVG 20010904//EN"
 "http://www.w3.org/TR/2001/REC-SVG-20010904/DTD/svg10.dtd">
<svg version="1.0" xmlns="http://www.w3.org/2000/svg"
 width="558.000000pt" height="558.000000pt" viewBox="0 0 558.000000 558.000000"
 preserveAspectRatio="xMidYMid meet">
<metadata>
Created by potrace 1.11, written by Peter Selinger 2001-2013
</metadata>
<g transform="translate(0.000000,558.000000) scale(0.100000,-0.100000)"
fill="#000000" stroke="none">
<path d="M0 2790 l0 -2790 2790 0 2790 0 0 2790 0 2790 -2790 0 -2790 0 0
-2790z m1185 1029 c309 -38 502 -173 569 -397 54 -185 15 -383 -105 -530 -44
-54 -170 -147 -215 -158 -22 -6 -19 -9 35 -44 60 -39 122 -112 158 -185 30
-61 57 -148 119 -395 31 -124 67 -255 80 -291 13 -37 24 -69 24 -73 0 -3 -94
-6 -209 -6 l-209 0 -20 58 c-31 84 -48 147 -97 355 -53 225 -81 293 -145 350
-64 57 -102 68 -257 74 l-133 5 0 -421 0 -421 -200 0 -200 0 0 1024 0 1024 23
5 c21 5 176 23 262 30 101 9 439 6 520 -4z m1235 -134 c21 -71 99 -341 173
-600 112 -391 163 -580 243 -905 5 -18 13 3 31 84 43 192 119 458 290 1014
l166 542 213 0 c171 0 214 -3 214 -13 0 -7 -155 -474 -345 -1037 -190 -563
-345 -1025 -345 -1027 0 -1 -105 -3 -233 -3 l-233 0 -327 1033 c-181 567 -328
1035 -327 1040 0 4 100 6 222 5 l221 -3 37 -130z m1950 -735 l0 -870 415 0
415 0 0 -170 0 -170 -615 0 -615 0 0 1040 0 1040 200 0 200 0 0 -870z"/>
<path d="M813 3513 l-33 -4 0 -315 0 -314 133 0 c209 0 302 31 386 126 105
120 91 351 -27 440 -69 53 -124 67 -282 69 -80 2 -160 1 -177 -2z"/>
</g>
</svg>
