<?xml version="1.0" standalone="no"?>
<!DOCTYPE svg PUBLIC "-//W3C//DTD SVG 20010904//EN"
 "http://www.w3.org/TR/2001/REC-SVG-20010904/DTD/svg10.dtd">
<svg version="1.0" xmlns="http://www.w3.org/2000/svg"
 width="1200.000000pt" height="1200.000000pt" viewBox="0 0 1200.000000 1200.000000"
 preserveAspectRatio="xMidYMid meet">
<metadata>
Created by potrace 1.14, written by Peter Selinger 2001-2017
</metadata>
<g transform="translate(0.000000,1200.000000) scale(0.100000,-0.100000)"
fill="#000000" stroke="none">
<path d="M6865 11747 c-62 -13 -202 -82 -244 -120 -45 -41 -62 -100 -60 -209
1 -91 -1 -101 -22 -124 -12 -13 -39 -29 -60 -34 -31 -9 -40 -18 -59 -62 -12
-29 -33 -69 -46 -90 l-24 -38 -143 0 c-124 0 -155 3 -227 25 -46 14 -94 25
-107 25 -14 0 -48 -23 -90 -63 -38 -35 -97 -81 -133 -102 -36 -22 -79 -51 -97
-66 -66 -57 -99 -46 -165 54 -31 46 -44 57 -75 63 -25 5 -54 24 -94 63 -32 31
-64 61 -71 67 -7 5 -20 20 -28 33 -25 37 -168 81 -265 81 -73 0 -85 -3 -116
-27 -82 -64 -108 -120 -109 -236 0 -53 -4 -79 -12 -82 -7 -2 -89 -10 -182 -19
-144 -12 -172 -18 -189 -35 -28 -28 -30 -110 -3 -140 l19 -21 -69 0 c-81 -1
-103 -13 -111 -64 -6 -36 -6 -36 -57 -36 -94 0 -210 -78 -232 -156 -11 -38
-11 -38 -67 -40 -32 -1 -64 -7 -72 -14 -17 -14 -21 -115 -5 -125 21 -13 8 -32
-30 -44 -22 -6 -58 -29 -80 -50 -38 -36 -40 -41 -40 -97 0 -58 -1 -60 -31 -71
-29 -11 -31 -15 -26 -48 5 -33 4 -35 -22 -35 -66 0 -104 -73 -117 -222 l-7
-78 -123 0 c-140 0 -174 -10 -174 -50 0 -14 5 -31 12 -38 9 -9 5 -12 -19 -12
-62 0 -136 -108 -119 -173 3 -14 -3 -28 -20 -43 -13 -13 -27 -36 -30 -52 -5
-23 -19 -34 -87 -67 -45 -21 -90 -46 -101 -54 -12 -11 -48 -18 -113 -21 -80
-5 -97 -9 -109 -25 -7 -11 -18 -25 -24 -32 -5 -7 -10 -39 -10 -73 l0 -60 -39
-16 c-43 -17 -64 -48 -59 -89 2 -22 14 -33 54 -54 47 -24 83 -40 128 -55 17
-6 17 -8 4 -24 -9 -10 -13 -26 -9 -42 12 -44 110 -37 148 10 18 21 16 6 -4
-35 -12 -25 -22 -35 -34 -32 -12 3 -16 0 -12 -9 2 -7 11 -10 18 -8 10 4 12 -1
8 -15 -3 -12 -10 -21 -17 -21 -6 0 -5 -4 3 -9 19 -12 4 -33 -17 -23 -9 5 -32
6 -49 3 -26 -5 -31 -9 -23 -21 5 -8 10 -10 10 -4 0 6 13 11 29 11 l30 0 -29
-35 c-16 -20 -27 -39 -24 -44 3 -4 1 -8 -4 -8 -6 0 -8 -17 -5 -39 3 -25 1 -41
-7 -46 -8 -5 -11 -4 -6 3 4 7 -4 10 -24 10 -16 -1 -30 -5 -30 -10 0 -4 5 -8
10 -8 6 0 10 -7 10 -16 0 -8 -4 -12 -10 -9 -6 3 -10 -3 -10 -14 0 -12 -5 -21
-11 -21 -7 0 -9 12 -5 33 l6 32 -45 -3 c-28 -3 -45 0 -45 7 0 8 -50 11 -160
11 l-160 0 0 -30 0 -30 160 0 c100 0 160 -4 160 -10 0 -5 -18 -10 -40 -10 -22
0 -40 -4 -40 -10 0 -6 -60 -10 -160 -10 l-160 0 0 30 0 30 -80 0 c-73 0 -80
-2 -80 -20 0 -18 -7 -20 -80 -20 -47 0 -80 -4 -80 -10 0 -6 60 -10 160 -10
l160 0 0 -30 c0 -28 -2 -30 -40 -30 -38 0 -40 -2 -40 -30 l0 -30 -120 0 c-73
0 -120 4 -120 10 0 6 -18 10 -40 10 -22 0 -40 -4 -40 -10 0 -5 -18 -10 -40
-10 -22 0 -40 -4 -40 -10 0 -5 -18 -10 -40 -10 -22 0 -40 -4 -40 -10 0 -6 -47
-10 -120 -10 -73 0 -120 4 -120 10 0 6 -33 10 -80 10 -73 0 -80 2 -80 20 0 17
-7 20 -40 20 -33 0 -40 -3 -40 -20 0 -18 -7 -20 -80 -20 -47 0 -80 -4 -80 -10
0 -6 73 -10 200 -10 l200 0 0 -30 0 -30 -80 0 -80 0 0 -30 0 -30 -120 0 c-73
0 -120 4 -120 10 0 6 -18 10 -40 10 -33 0 -40 3 -40 20 0 19 -7 20 -160 20
l-160 0 0 -30 0 -30 160 0 c100 0 160 -4 160 -10 0 -6 -33 -10 -80 -10 -47 0
-80 -4 -80 -10 0 -6 -33 -10 -80 -10 -47 0 -80 -4 -80 -10 0 -5 -18 -10 -40
-10 -33 0 -40 -3 -40 -20 0 -18 -7 -20 -80 -20 l-80 0 0 -30 c0 -28 -2 -30
-40 -30 l-40 0 0 -530 c0 -523 0 -530 20 -530 19 0 20 -7 20 -240 0 -233 -1
-240 -20 -240 -18 0 -20 -7 -20 -80 0 -73 2 -80 20 -80 20 0 20 -7 20 -280 0
-180 4 -280 10 -280 6 0 10 18 10 40 0 33 3 40 20 40 19 0 20 7 20 240 0 233
-1 240 -20 240 -17 0 -20 7 -20 40 0 22 5 40 10 40 6 0 10 18 10 40 0 22 5 40
10 40 6 0 10 -33 10 -80 0 -47 4 -80 10 -80 6 0 10 -60 10 -160 0 -153 1 -160
20 -160 17 0 20 7 20 40 0 33 3 40 20 40 19 0 20 -7 20 -200 0 -193 -1 -200
-20 -200 -19 0 -20 -7 -20 -120 0 -113 1 -120 20 -120 19 0 20 -7 20 -200 0
-127 4 -200 10 -200 6 0 10 -18 10 -40 0 -38 2 -40 30 -40 28 0 30 -2 30 -40
0 -33 3 -40 20 -40 18 0 20 7 20 80 l0 80 -30 0 -30 0 0 160 c0 153 -1 160
-20 160 -19 0 -20 7 -20 120 0 113 1 120 20 120 19 0 20 -7 20 -120 0 -73 4
-120 10 -120 6 0 10 -47 10 -120 0 -113 1 -120 20 -120 17 0 20 7 20 40 0 33
3 40 20 40 19 0 20 -7 20 -240 0 -233 -1 -240 -20 -240 -18 0 -20 -7 -20 -80
0 -73 2 -80 20 -80 19 0 20 -7 20 -240 l0 -240 30 0 30 0 0 240 c0 233 -1 240
-20 240 -18 0 -20 7 -20 80 0 73 2 80 20 80 18 0 20 -7 20 -80 0 -47 4 -80 10
-80 6 0 10 -47 10 -120 l0 -120 40 0 40 0 0 -200 c0 -193 -1 -200 -20 -200
-18 0 -20 -7 -20 -80 0 -73 2 -80 20 -80 18 0 20 -7 20 -80 0 -73 -2 -80 -20
-80 -17 0 -20 -7 -20 -40 0 -33 3 -40 20 -40 19 0 20 -7 20 -120 l0 -120 30 0
30 0 0 240 c0 233 -1 240 -20 240 -17 0 -20 7 -20 40 0 22 5 40 10 40 6 0 10
18 10 40 0 22 5 40 10 40 6 0 10 -33 10 -80 0 -47 4 -80 10 -80 6 0 10 -33 10
-80 0 -73 2 -80 20 -80 17 0 20 -7 20 -40 0 -33 -3 -40 -20 -40 -17 0 -20 -7
-20 -40 0 -33 3 -40 20 -40 17 0 20 7 20 40 0 33 3 40 20 40 19 0 20 -7 20
-200 0 -193 -1 -200 -20 -200 -18 0 -20 7 -20 80 0 73 -2 80 -20 80 -19 0 -20
-7 -20 -160 0 -153 1 -160 20 -160 17 0 20 -7 20 -40 0 -33 3 -40 20 -40 19 0
20 -7 20 -200 0 -127 4 -200 10 -200 6 0 10 -18 10 -40 0 -38 2 -40 30 -40 28
0 30 -2 30 -40 0 -33 3 -40 20 -40 18 0 20 7 20 80 l0 80 -30 0 -30 0 0 160
c0 153 -1 160 -20 160 -19 0 -20 7 -20 120 0 73 4 120 10 120 6 0 10 18 10 40
0 22 5 40 10 40 6 0 10 -60 10 -160 0 -100 4 -160 10 -160 6 0 10 -47 10 -120
0 -113 1 -120 20 -120 17 0 20 7 20 40 0 33 3 40 20 40 19 0 20 -7 20 -200 0
-127 4 -200 10 -200 6 0 10 -18 10 -40 0 -38 -2 -40 -30 -40 l-30 0 0 -80 c0
-73 2 -80 20 -80 19 0 20 -7 20 -240 0 -233 1 -240 20 -240 17 0 20 7 20 40 0
22 5 40 10 40 6 0 10 73 10 200 0 193 -1 200 -20 200 -18 0 -20 7 -20 80 0 73
2 80 20 80 18 0 20 -7 20 -80 0 -47 4 -80 10 -80 6 0 10 -47 10 -120 0 -113 1
-120 20 -120 17 0 20 7 20 40 0 33 3 40 20 40 19 0 20 -7 20 -240 0 -233 -1
-240 -20 -240 -19 0 -20 -7 -20 -160 0 -153 1 -160 20 -160 19 0 20 -7 20
-160 0 -100 4 -160 10 -160 6 0 10 -18 10 -40 0 -22 5 -40 10 -40 6 0 10 18
10 40 0 22 5 40 10 40 6 0 10 60 10 160 0 153 -1 160 -20 160 -19 0 -20 7 -20
120 0 73 4 120 10 120 6 0 10 18 10 40 0 22 5 40 10 40 6 0 10 -60 10 -160 0
-100 4 -160 10 -160 6 0 10 -18 10 -40 0 -33 3 -40 20 -40 17 0 20 -7 20 -40
0 -33 3 -40 20 -40 19 0 20 -7 20 -160 0 -153 -1 -160 -20 -160 -18 0 -20 7
-20 80 0 73 -2 80 -20 80 -18 0 -20 -7 -20 -80 0 -73 2 -80 20 -80 19 0 20 -7
20 -160 l0 -160 30 0 30 0 0 120 c0 73 4 120 10 120 6 0 10 18 10 40 0 22 5
40 10 40 6 0 10 -60 10 -160 l0 -160 5390 0 5390 0 0 1680 c0 1673 0 1680 -20
1680 -19 0 -20 7 -20 160 0 153 1 160 20 160 19 0 20 7 20 120 0 113 -1 120
-20 120 -19 0 -20 7 -20 199 0 123 -4 202 -10 206 -5 3 -10 40 -10 81 0 43 -4
74 -10 74 -5 0 -10 -18 -10 -40 0 -33 -3 -40 -20 -40 -17 0 -20 7 -20 40 0 33
-3 40 -20 40 -19 0 -20 7 -20 160 0 153 -1 160 -20 160 -19 0 -20 7 -20 240 0
233 -1 240 -20 240 -17 0 -20 -7 -20 -40 0 -22 -4 -40 -10 -40 -6 0 -10 -72
-10 -195 0 -184 1 -195 20 -205 14 -8 20 -21 20 -45 0 -19 -4 -35 -10 -35 -5
0 -10 -18 -10 -40 0 -22 -4 -40 -10 -40 -6 0 -10 31 -10 74 0 41 -4 78 -10 81
-5 3 -10 24 -10 46 0 32 -3 39 -20 39 -17 0 -20 7 -20 40 0 33 3 40 20 40 18
0 20 7 20 80 0 73 -2 80 -20 80 -17 0 -20 -7 -20 -40 0 -33 -3 -40 -20 -40
-19 0 -20 7 -20 200 0 193 1 200 20 200 18 0 20 -7 20 -80 0 -73 2 -80 20 -80
18 0 20 7 20 80 0 73 -2 80 -20 80 -19 0 -20 7 -20 120 0 113 -1 120 -20 120
-17 0 -20 7 -20 40 0 33 3 40 20 40 17 0 20 7 20 40 0 33 -3 40 -20 40 -19 0
-20 7 -20 119 0 69 -4 122 -10 126 -5 3 -10 22 -10 41 0 19 -4 34 -10 34 -5 0
-10 -18 -10 -40 0 -25 -5 -40 -12 -40 -10 0 -12 -36 -10 -155 3 -142 5 -156
22 -165 18 -10 20 -22 20 -125 0 -70 -4 -115 -10 -115 -5 0 -10 -18 -10 -41 0
-24 -4 -38 -10 -34 -6 4 -10 67 -10 155 0 88 -4 151 -10 155 -5 3 -10 42 -10
86 0 72 -2 79 -20 79 -17 0 -20 -7 -20 -40 0 -33 -3 -40 -20 -40 -19 0 -20 7
-20 200 0 193 1 200 20 200 18 0 20 -7 20 -80 0 -73 2 -80 20 -80 18 0 20 7
20 80 0 73 -2 80 -20 80 -19 0 -20 7 -20 160 0 153 -1 160 -20 160 -19 0 -20
7 -20 160 0 153 -1 160 -20 160 -17 0 -20 7 -20 40 0 33 3 40 20 40 17 0 20 7
20 40 0 33 -3 40 -20 40 -17 0 -20 -7 -20 -40 0 -22 -4 -40 -10 -40 -6 0 -10
-72 -10 -195 0 -184 1 -195 20 -205 17 -9 20 -21 20 -85 0 -43 -4 -75 -10 -75
-5 0 -10 -18 -10 -40 0 -22 -4 -40 -10 -40 -6 0 -10 45 -10 114 0 66 -4 117
-10 121 -6 4 -10 57 -10 126 l0 119 -40 0 -40 0 0 120 c0 113 1 120 20 120 19
0 20 7 20 160 0 153 -1 160 -20 160 -19 0 -20 7 -20 240 l0 240 -32 0 -33 0 3
-235 c3 -221 4 -235 22 -245 17 -9 20 -21 20 -85 0 -68 -2 -75 -20 -75 -18 0
-20 7 -20 74 0 41 -4 78 -10 81 -6 4 -10 70 -10 166 0 152 -1 159 -20 159 -17
0 -20 -7 -20 -40 0 -33 -3 -40 -20 -40 -19 0 -20 7 -20 200 0 193 1 200 20
200 18 0 20 -7 20 -80 0 -73 2 -80 20 -80 18 0 20 7 20 80 0 73 -2 80 -20 80
-19 0 -20 7 -20 120 0 113 -1 120 -20 120 -19 0 -20 7 -20 199 0 123 -4 202
-10 206 -5 3 -10 22 -10 41 0 19 -4 34 -10 34 -5 0 -10 -18 -10 -40 0 -25 -5
-40 -12 -40 -10 0 -12 -36 -10 -155 3 -142 5 -156 22 -165 18 -10 20 -22 20
-125 0 -108 -1 -115 -20 -115 -19 0 -20 7 -20 114 0 66 -4 117 -10 121 -6 4
-10 57 -10 126 0 112 -1 119 -20 119 -17 0 -20 7 -20 40 0 33 3 40 20 40 19 0
20 7 20 160 0 153 -1 160 -20 160 -18 0 -20 7 -20 80 0 73 -2 80 -20 80 -19 0
-20 7 -20 240 l0 240 -32 0 -33 0 3 -235 c3 -221 4 -235 22 -245 17 -9 20 -21
20 -85 0 -68 -2 -75 -20 -75 -18 0 -20 7 -20 74 0 41 -4 78 -10 81 -6 4 -10
57 -10 126 0 112 -1 119 -20 119 -17 0 -20 -7 -20 -40 0 -33 -3 -40 -20 -40
-19 0 -20 7 -20 160 0 153 1 160 20 160 18 0 20 7 20 80 0 73 -2 80 -20 80
-17 0 -20 7 -20 40 l0 40 -60 0 c-33 0 -60 -4 -60 -10 0 -6 -33 -10 -80 -10
-47 0 -80 -4 -80 -10 0 -5 -18 -10 -40 -10 -33 0 -40 -3 -40 -20 0 -17 -7 -20
-40 -20 -38 0 -40 -2 -40 -30 l0 -30 -80 0 c-47 0 -80 4 -80 10 0 6 -33 10
-80 10 -73 0 -80 2 -80 20 0 19 -7 20 -160 20 l-160 0 0 -30 0 -30 160 0 c100
0 160 -4 160 -10 0 -6 -33 -10 -80 -10 -47 0 -80 -4 -80 -10 0 -6 -33 -10 -80
-10 -47 0 -80 -4 -80 -10 0 -5 -18 -10 -40 -10 -33 0 -40 -3 -40 -20 0 -18 -7
-20 -80 -20 l-80 0 0 -30 c0 -27 -3 -30 -34 -30 -31 0 -34 3 -40 38 -14 87
-21 82 114 82 73 0 120 4 120 10 0 6 -18 10 -40 10 -33 0 -40 3 -40 20 0 18
-7 20 -79 20 -77 0 -79 1 -87 28 -7 19 -11 -12 -14 -108 l-6 -135 -2 134 c-2
126 -4 137 -27 171 -13 19 -26 52 -27 72 -2 20 -5 35 -7 33 -2 -2 -25 22 -53
53 -56 65 -114 112 -138 112 -9 0 -27 19 -40 43 -30 56 -69 97 -92 97 -10 0
-18 5 -18 10 0 6 11 10 24 10 30 0 50 23 41 50 -8 25 -31 25 -86 0 -24 -11
-48 -20 -54 -20 -6 0 -11 40 -12 96 -2 52 -8 104 -13 114 -13 25 -61 50 -93
50 -18 0 -27 7 -31 27 -9 35 -59 106 -88 125 -37 24 -77 30 -190 29 -82 -2
-108 1 -110 11 -5 46 -22 78 -58 115 -31 32 -83 63 -104 63 -8 0 -10 26 -8 79
5 97 -10 130 -71 160 -51 25 -84 26 -112 5 -19 -14 -20 -13 -25 33 -5 44 -7
48 -33 51 -30 4 -67 -21 -67 -44 0 -17 -9 -22 -60 -30 l-43 -7 6 54 c3 30 13
87 21 127 l15 73 -29 81 c-54 147 -105 210 -179 223 -60 10 -100 -2 -113 -33
-5 -15 -13 -79 -16 -142 l-7 -115 -23 25 c-114 122 -283 283 -312 297 -44 22
-229 28 -315 10z m108 -2291 c15 -19 27 -42 27 -50 0 -8 4 -17 9 -20 5 -4 14
-37 21 -74 13 -81 45 -142 83 -160 15 -8 54 -16 85 -19 71 -8 112 -35 112 -75
0 -27 14 -60 35 -84 6 -6 58 -21 116 -33 57 -11 129 -31 159 -42 83 -31 140
-49 140 -42 0 3 7 0 15 -7 14 -12 13 -16 -6 -36 -12 -13 -25 -42 -30 -66 -12
-65 -11 -172 3 -186 7 -7 42 -12 89 -12 l76 0 -5 -69 c-6 -87 -2 -102 47 -177
45 -70 84 -90 219 -111 18 -3 32 -11 32 -19 0 -8 -4 -14 -10 -14 -18 0 -45
-35 -47 -62 -5 -50 -7 -53 -63 -61 -62 -9 -89 -10 -175 -6 -51 3 -67 -1 -107
-25 -71 -42 -93 -78 -93 -153 0 -51 4 -66 24 -87 20 -21 34 -26 73 -26 41 0
48 -3 49 -20 1 -11 2 -25 3 -31 2 -22 41 -39 89 -39 42 0 54 5 82 33 41 41 54
102 31 148 -30 61 -27 63 101 73 39 3 77 8 85 11 10 4 13 -8 14 -49 0 -35 6
-62 16 -73 18 -21 48 -78 48 -91 0 -13 -45 -59 -99 -102 -94 -75 -121 -113
-121 -170 0 -25 5 -31 35 -39 44 -12 83 0 145 44 25 18 62 42 83 53 21 11 44
28 52 38 11 16 18 11 64 -61 l52 -78 -7 -76 c-4 -42 -11 -86 -15 -99 -5 -13
-9 -41 -9 -62 0 -50 -37 -215 -58 -260 -19 -41 -21 -48 -28 -117 -3 -29 -11
-53 -16 -53 -6 0 -33 16 -59 35 -27 19 -52 35 -55 35 -3 0 -23 13 -43 28 -44
34 -102 59 -158 67 -62 10 -186 -13 -251 -45 -31 -15 -60 -29 -64 -29 -18 -4
-67 -29 -113 -59 -27 -17 -54 -32 -59 -31 -5 0 -12 -3 -15 -8 -3 -5 -28 -20
-56 -33 -73 -37 -83 -60 -23 -60 16 0 43 -9 59 -21 16 -11 29 -17 29 -13 0 3
6 2 13 -3 46 -35 197 -42 307 -13 92 23 119 19 195 -31 105 -68 131 -79 198
-79 l59 0 -4 -102 c-2 -67 -8 -103 -16 -106 -8 -2 -12 -27 -12 -70 0 -40 -6
-79 -15 -96 -8 -15 -15 -42 -15 -58 0 -19 -4 -28 -12 -25 -7 2 -31 -4 -53 -14
-22 -10 -64 -19 -93 -19 -50 0 -52 1 -47 23 4 16 0 29 -14 41 -26 23 -27 46
-3 46 9 0 23 9 29 19 12 19 14 19 42 -10 44 -43 87 -36 111 20 14 35 2 85 -29
118 -10 11 -31 39 -46 64 -42 67 -88 104 -173 140 -56 23 -90 31 -124 30 -28
-1 -48 2 -48 9 0 15 -65 12 -106 -5 -19 -8 -41 -12 -49 -9 -19 8 -116 -27
-122 -43 -3 -7 -13 -13 -23 -13 -11 0 -35 -9 -54 -21 -20 -12 -36 -18 -36 -14
0 3 -15 -8 -32 -24 -18 -17 -39 -31 -45 -31 -7 0 -13 -3 -13 -7 0 -5 -14 -16
-31 -25 -17 -10 -28 -22 -25 -27 6 -8 -51 -41 -71 -41 -6 0 -23 -11 -39 -25
-16 -14 -32 -25 -36 -25 -5 0 -8 -6 -8 -14 0 -8 -10 -22 -22 -31 -23 -16 -23
-16 -3 -32 17 -13 17 -15 2 -9 -19 6 -16 -4 9 -34 7 -8 14 -24 16 -34 2 -16
-3 -20 -27 -20 -34 -1 -34 1 -16 -111 7 -38 12 -78 13 -87 1 -10 5 -18 9 -18
4 0 9 -8 13 -17 3 -10 15 -32 25 -50 11 -17 23 -48 27 -67 3 -20 9 -36 13 -36
4 0 14 -11 21 -25 15 -28 50 -34 50 -9 0 9 -10 36 -22 61 -17 35 -19 46 -9 56
7 6 12 8 11 2 -6 -30 3 -44 36 -55 19 -7 40 -20 47 -31 6 -10 36 -28 67 -41
30 -12 57 -25 60 -30 3 -4 21 -8 40 -10 19 -1 49 -10 65 -19 18 -11 73 -22
134 -29 116 -13 165 -6 250 36 27 13 80 30 118 39 94 21 119 33 131 61 7 13
16 24 22 24 5 0 10 10 10 23 0 16 3 18 9 9 13 -21 20 22 16 98 -3 78 -4 80
-15 55 -7 -17 -9 -17 -9 -2 -1 26 -45 22 -78 -8 -47 -42 -52 -45 -63 -45 -6 0
-9 -4 -5 -9 9 -16 -41 -58 -74 -63 -17 -3 -31 -1 -31 4 0 5 -6 6 -12 2 -16
-10 -48 -13 -48 -5 0 3 15 13 33 20 36 16 70 52 91 96 8 17 26 41 40 54 14 14
26 30 26 37 0 7 17 16 38 19 63 10 86 14 107 20 20 6 20 2 17 -187 -1 -106 -7
-213 -13 -238 -7 -25 -13 -95 -15 -155 -2 -61 -5 -117 -8 -125 -2 -8 -7 -42
-10 -75 -13 -141 -24 -205 -36 -220 -7 -8 -9 -15 -4 -15 4 0 3 -5 -4 -12 -7
-7 -12 -25 -12 -40 0 -16 -9 -41 -20 -56 -11 -15 -27 -63 -36 -107 -9 -44 -25
-95 -35 -115 -11 -19 -19 -44 -19 -56 0 -20 -22 -98 -40 -139 -13 -31 -23 -67
-25 -95 -4 -41 -27 -124 -39 -140 -19 -24 -36 -69 -36 -96 0 -14 -5 -35 -12
-47 -6 -12 -15 -37 -20 -57 -5 -19 -10 -39 -12 -45 -2 -5 -6 -23 -11 -40 -4
-16 -11 -34 -15 -40 -4 -5 -11 -25 -15 -44 -4 -19 -15 -47 -25 -63 -10 -16
-16 -37 -13 -46 2 -10 -7 -28 -21 -41 -14 -14 -26 -29 -26 -35 0 -9 -39 -95
-62 -136 -4 -8 -17 -34 -29 -58 -12 -23 -25 -44 -29 -47 -4 -3 -19 -29 -34
-59 -15 -30 -40 -69 -55 -85 -16 -17 -27 -31 -23 -31 3 0 -1 -8 -9 -17 -13
-16 -19 -27 -49 -80 -29 -54 -50 -110 -50 -136 0 -35 -13 -61 -56 -110 -19
-20 -35 -42 -35 -47 -1 -6 -2 -14 -3 -20 -1 -10 -53 -75 -98 -122 -15 -16 -30
-37 -33 -48 -4 -11 -11 -20 -16 -20 -5 0 -9 -7 -9 -15 0 -8 -6 -12 -14 -9 -11
4 -13 0 -9 -16 3 -13 -2 -29 -14 -43 -10 -12 -25 -34 -33 -50 -9 -18 -19 -26
-30 -22 -21 7 -42 -17 -34 -39 4 -11 -1 -19 -18 -25 -13 -5 -34 -24 -48 -42
-60 -82 -211 -225 -267 -253 l-57 -30 -397 -4 -397 -5 -45 32 c-25 17 -50 31
-56 31 -6 0 -11 4 -11 8 0 5 -14 9 -32 9 -19 0 -37 7 -48 20 -9 11 -26 24 -39
28 -13 4 -39 18 -57 30 -19 13 -48 30 -65 37 -16 7 -32 21 -35 30 -6 20 -103
108 -119 108 -6 0 -30 18 -53 40 -22 22 -48 40 -57 40 -20 0 -19 7 5 32 11 12
20 25 20 30 0 17 -29 7 -47 -16 l-19 -24 -60 39 c-86 57 -120 95 -161 176 -20
40 -40 73 -45 73 -4 0 -8 5 -8 11 0 6 -15 28 -32 49 -18 20 -39 46 -47 58 -8
12 -27 24 -41 27 -14 3 -57 35 -94 71 -38 35 -84 72 -102 80 -33 16 -173 149
-201 191 -8 12 -26 64 -39 114 -13 50 -28 97 -32 103 -5 6 -12 23 -15 37 -9
34 -50 88 -187 240 -49 55 -63 92 -37 102 7 3 5 6 -5 6 -20 1 -24 16 -8 26 5
3 10 11 10 16 0 6 -4 7 -10 4 -5 -3 -10 -1 -10 5 0 6 -4 9 -10 5 -5 -3 -7 -11
-5 -18 3 -7 1 -19 -5 -27 -7 -12 -13 -11 -34 9 -13 13 -22 29 -19 37 3 8 1 14
-5 14 -16 0 -42 65 -42 104 0 19 -7 61 -15 93 -11 43 -15 118 -15 310 l0 252
-41 38 c-35 33 -42 46 -49 98 -16 108 -26 149 -48 194 -17 35 -20 51 -13 81 8
36 -8 90 -27 90 -17 0 -32 -25 -32 -53 0 -33 -15 -64 -43 -91 -31 -31 -166
-31 -222 -1 -24 12 -54 25 -66 29 -48 12 -59 60 -59 245 0 147 -2 170 -18 187
-25 26 -53 84 -46 95 3 5 2 9 -3 9 -14 0 -33 52 -33 90 0 19 -7 45 -15 57 -13
19 -15 56 -11 250 10 477 21 676 39 708 9 17 17 38 17 48 0 26 62 105 86 109
26 6 116 -53 145 -93 11 -16 28 -29 38 -29 9 0 37 -20 61 -45 24 -25 48 -45
53 -45 12 0 87 -77 81 -83 -2 -2 2 -10 11 -17 8 -7 15 -23 15 -36 0 -13 4 -24
10 -24 5 0 12 -11 16 -24 3 -14 14 -32 25 -42 30 -27 23 -88 -8 -62 -7 6 -16
8 -20 5 -9 -10 17 -65 34 -71 12 -5 13 -9 3 -21 -7 -8 -10 -22 -6 -30 4 -12
10 -13 31 -3 18 8 22 14 13 19 -10 6 -8 15 8 36 19 25 20 36 13 88 -6 43 -14
64 -30 76 -17 12 -20 22 -15 43 3 14 3 26 -2 26 -7 0 -30 28 -87 105 -10 15
-39 40 -62 56 -48 34 -57 59 -18 51 19 -3 25 0 26 14 4 86 8 116 18 128 6 7 9
20 6 28 -4 9 1 18 9 21 11 5 16 0 16 -13 0 -10 4 -21 10 -25 12 -8 50 16 50
32 0 7 7 13 16 13 11 0 15 -6 11 -20 -6 -25 19 -27 45 -3 21 19 24 45 4 37
-11 -4 -13 0 -9 15 3 12 12 21 19 21 13 0 17 10 12 27 -2 5 -9 6 -17 5 -9 -2
-12 3 -9 16 10 35 -5 41 -37 16 -23 -18 -26 -24 -12 -24 12 0 17 -8 17 -30 0
-27 -3 -30 -30 -30 -29 0 -40 13 -20 25 6 3 10 10 10 16 0 5 -4 9 -10 9 -5 0
-10 -5 -10 -10 0 -19 -34 -48 -60 -52 -19 -2 -25 1 -24 15 4 82 3 79 28 73 26
-6 40 12 30 39 -8 19 -13 19 -36 -2 -27 -25 -32 -9 -13 41 17 44 43 67 30 26
-8 -24 1 -26 22 -4 13 12 17 13 24 2 5 -7 4 -17 -1 -22 -6 -6 -10 -17 -10 -25
0 -8 3 -11 7 -8 3 4 12 2 19 -4 20 -17 36 -2 24 22 -6 11 -8 23 -5 28 3 5 -3
23 -12 40 -17 29 -17 32 0 60 22 38 22 45 -3 38 -11 -3 -22 -2 -24 2 -10 16
13 32 45 33 19 0 39 5 46 10 7 5 14 5 18 -2 3 -5 -1 -13 -9 -16 -29 -11 -18
-31 14 -26 28 4 35 13 31 36 -1 5 1 16 6 25 10 22 10 110 0 104 -4 -3 -15 1
-24 8 -13 11 -18 10 -34 -10 -17 -20 -47 -22 -34 -1 3 5 -3 11 -14 15 -11 3
-22 12 -25 20 -3 8 -21 17 -40 21 -20 3 -33 11 -30 16 3 5 12 7 20 4 9 -4 18
3 23 17 5 13 20 31 33 39 23 15 25 14 46 -9 27 -31 27 -33 -1 -33 -33 0 -65
-24 -47 -35 9 -5 15 -4 18 3 2 7 8 12 13 12 4 0 6 -7 3 -15 -4 -9 0 -15 10
-15 9 0 16 -5 16 -10 0 -7 6 -7 20 0 11 6 20 18 20 27 0 18 28 53 42 53 4 0 8
-7 8 -17 0 -15 1 -15 18 0 21 19 32 22 32 7 0 -6 -11 -16 -25 -22 -32 -14 -33
-32 -1 -24 19 5 25 1 29 -16 6 -21 7 -21 27 -3 11 10 20 24 20 31 0 7 5 16 11
19 5 4 3 -10 -6 -31 -8 -20 -13 -39 -10 -42 7 -8 35 19 35 35 0 7 7 16 15 19
17 7 21 34 5 34 -5 0 -10 5 -10 11 0 8 5 7 16 -2 14 -11 19 -9 38 16 29 41 54
65 67 65 6 0 8 -7 5 -16 -4 -10 1 -25 10 -35 14 -15 14 -21 4 -34 -9 -11 -17
-12 -32 -4 -33 18 -65 3 -70 -31 -3 -20 0 -30 9 -30 15 0 16 -9 3 -30 -6 -10
-10 -11 -10 -2 0 19 -18 14 -31 -10 -9 -16 -9 -23 0 -26 6 -2 11 -12 11 -23 0
-24 19 -25 26 -1 17 53 25 64 38 53 9 -8 13 -7 13 4 0 8 -4 15 -9 15 -4 0 -8
5 -8 10 0 6 9 10 20 10 13 0 18 5 14 15 -4 10 0 15 11 15 12 0 15 -5 10 -20
-3 -11 -4 -20 -1 -20 11 0 45 43 40 52 -3 4 2 11 10 14 18 7 22 33 6 35 -20 3
-25 5 -44 15 -12 8 -15 14 -7 18 6 4 11 3 11 -2 0 -13 103 -2 112 12 13 18 9
28 -13 33 -16 4 -17 8 -7 14 9 6 7 9 -8 9 -12 0 -27 6 -33 14 -7 8 -25 19 -41
25 -24 8 -32 7 -41 -7 -9 -15 -10 -14 -6 5 7 31 -7 37 -44 18 -22 -12 -34 -14
-42 -6 -8 8 -6 11 6 11 9 0 17 4 17 8 0 4 14 13 31 19 27 11 32 10 36 -6 7
-28 109 -40 127 -16 7 9 20 15 30 13 11 -2 21 5 26 18 8 20 6 21 -41 20 -29
-1 -54 -8 -58 -15 -6 -10 -10 -10 -16 -2 -5 9 -11 9 -22 0 -12 -10 -16 -10
-23 0 -4 8 -12 11 -17 8 -5 -3 -15 -2 -23 3 -8 5 -23 1 -40 -12 -32 -23 -62
-29 -72 -14 -5 8 -11 7 -20 -2 -11 -11 -10 -15 5 -23 10 -6 17 -20 16 -32 -4
-54 7 -60 48 -27 31 24 40 25 40 5 0 -8 -6 -15 -13 -15 -7 0 -30 -15 -50 -32
-31 -27 -36 -29 -30 -12 4 14 1 26 -9 34 -8 7 -15 23 -15 36 0 13 -4 24 -10
24 -5 0 -10 -8 -10 -17 0 -13 -3 -14 -12 -5 -9 9 -9 15 0 24 7 7 12 30 12 52
0 37 -1 38 -14 21 -8 -11 -12 -23 -10 -27 3 -5 -6 -8 -20 -8 -14 0 -28 -4 -31
-10 -3 -5 1 -10 9 -10 18 0 21 -15 6 -25 -5 -3 -7 -12 -4 -19 3 -8 1 -17 -4
-20 -5 -3 -13 9 -16 27 -5 29 -10 34 -36 34 -17 0 -30 -5 -30 -10 0 -5 -6 -7
-13 -4 -21 8 -39 -7 -31 -26 8 -21 18 -21 38 -2 8 8 27 15 42 15 26 0 27 -1
10 -19 -10 -11 -30 -21 -45 -23 -16 -2 -25 -8 -23 -17 5 -23 -18 -43 -35 -30
-17 15 -53 -14 -53 -42 0 -16 -27 -39 -44 -39 -3 0 -6 20 -6 45 0 38 3 45 20
45 10 0 24 9 30 19 14 26 13 38 -2 23 -19 -19 -28 -14 -28 13 0 14 -4 25 -10
25 -5 0 -10 17 -10 39 0 31 5 42 26 56 14 9 28 14 32 11 3 -4 16 4 29 16 25
23 44 18 23 -7 -15 -18 -7 -30 15 -22 8 4 15 17 15 30 0 20 4 23 30 19 23 -3
30 0 30 12 0 9 9 25 20 36 22 22 26 40 10 40 -5 0 -10 6 -10 14 0 16 31 30 72
31 22 1 25 -2 16 -12 -6 -7 -22 -13 -35 -13 -17 0 -23 -4 -20 -14 3 -7 -3 -28
-14 -45 -21 -35 -17 -60 7 -40 18 15 45 4 38 -16 -4 -9 -1 -15 7 -15 26 0 36
15 36 52 0 21 3 41 6 45 4 3 7 1 7 -5 0 -7 7 -12 15 -12 22 0 18 18 -5 25 -24
8 -25 18 -5 35 10 8 13 23 9 45 -4 24 -1 34 12 39 10 4 14 13 11 26 -3 11 -1
20 4 20 5 0 9 -4 9 -10 0 -5 8 -9 18 -8 9 1 26 0 37 -1 16 -1 13 -5 -12 -16
-39 -17 -43 -35 -8 -35 39 0 40 0 37 16 -2 8 2 14 8 14 5 0 10 -7 10 -15 0 -8
7 -15 15 -15 8 0 15 7 15 16 0 10 6 14 15 10 9 -3 15 0 15 10 0 12 6 15 23 10
59 -18 90 -19 101 -4 16 22 54 29 60 11 9 -21 -26 -63 -49 -60 -18 2 -20 -4
-19 -53 0 -52 2 -55 27 -58 24 -3 26 0 24 27 -1 17 -8 31 -14 31 -7 0 -13 5
-13 11 0 6 9 9 20 6 24 -6 72 36 64 56 -4 11 4 16 30 19 20 2 40 0 46 -6 13
-13 59 30 57 55 -2 24 -8 24 -30 -1 -17 -20 -37 -27 -37 -12 0 4 18 27 40 52
38 43 40 44 46 23 4 -16 14 -23 31 -23 20 0 24 4 21 23 -2 14 -9 21 -21 21
-16 -2 -16 0 -5 15 8 9 20 28 28 44 17 34 46 35 54 3 3 -13 22 -34 42 -47 34
-21 35 -23 18 -36 -17 -12 -17 -13 3 -13 11 0 24 7 27 16 3 8 14 14 23 13 28
-5 91 31 116 64 12 17 36 57 52 90 17 33 37 63 45 67 8 4 26 13 40 19 41 19
53 50 59 146 l6 90 38 2 c46 1 91 19 133 50 17 13 34 23 38 23 4 0 22 11 40
25 18 14 38 25 43 25 9 0 65 57 115 119 10 11 24 21 32 21 16 0 27 -53 14 -72
-12 -19 -10 -66 4 -74 6 -4 45 -9 87 -11 42 -3 78 -6 79 -8 2 -2 -1 -27 -7
-57 -8 -36 -22 -64 -44 -88 -18 -19 -36 -42 -40 -50 -4 -8 -13 -23 -19 -32
-10 -14 -10 -22 -2 -35 12 -18 62 -22 129 -9 72 14 153 27 195 31 76 8 132 67
145 152 8 55 16 63 68 63 20 0 65 13 99 29 34 17 65 28 69 26 3 -3 9 -19 13
-36 4 -22 14 -34 35 -42 23 -8 30 -19 35 -48 3 -20 13 -42 21 -49 23 -19 193
-23 309 -8 149 20 140 -4 144 386 2 176 7 321 12 327 5 6 6 16 1 21 -5 5 -11
39 -14 75 -8 91 1 100 46 45z m2468 -35 c5 9 9 10 9 2 0 -16 -13 -23 -27 -15
-7 4 -9 19 -5 37 l7 30 3 -34 c3 -25 6 -31 13 -20z m-41 19 c0 -5 -5 -10 -11
-10 -5 0 -7 5 -4 10 3 6 8 10 11 10 2 0 4 -4 4 -10z m113 -97 c-7 -2 -19 -2
-25 0 -7 3 -2 5 12 5 14 0 19 -2 13 -5z m1527 -623 c0 -73 -2 -80 -20 -80 -18
0 -20 7 -20 80 0 73 2 80 20 80 18 0 20 -7 20 -80z m-8529 40 l24 -21 -30 14
c-16 8 -37 17 -45 20 -10 4 -8 6 6 6 12 1 32 -8 45 -19z m124 -98 c-3 -3 -11
0 -18 7 -9 10 -8 11 6 5 10 -3 15 -9 12 -12z m8405 -142 c0 -33 -3 -40 -20
-40 -17 0 -20 7 -20 40 0 33 3 40 20 40 17 0 20 -7 20 -40z m-8114 -28 c1 -12
-5 -27 -12 -33 -11 -9 -14 -5 -14 26 0 40 24 46 26 7z m-37 -124 c-1 -19 -3
-25 -6 -15 -3 11 -11 16 -19 13 -11 -4 -12 -2 -1 14 18 29 27 24 26 -12z m-19
-38 c0 -5 -4 -10 -10 -10 -5 0 -10 5 -10 10 0 6 5 10 10 10 6 0 10 -4 10 -10z
m-49 -63 c-13 -13 -15 1 -4 30 7 17 8 17 11 -1 2 -10 -1 -23 -7 -29z m-247 1
c-3 -5 -9 -6 -14 -3 -5 3 -11 1 -15 -5 -8 -13 -35 -13 -35 -1 0 10 24 18 52
17 9 0 14 -4 12 -8z m176 -8 c0 -5 -5 -10 -11 -10 -5 0 -7 5 -4 10 3 6 8 10
11 10 2 0 4 -4 4 -10z m107 -47 c-3 -10 -5 -2 -5 17 0 19 2 27 5 18 2 -10 2
-26 0 -35z m1333 13 c0 -8 -7 -16 -15 -20 -15 -5 -21 14 -8 27 11 12 23 8 23
-7z m20 -142 c-22 -25 -28 -15 -11 20 13 26 17 29 19 14 2 -11 -2 -26 -8 -34z
m-270 16 c0 -5 -7 -10 -15 -10 -8 0 -15 5 -15 10 0 6 7 10 15 10 8 0 15 -4 15
-10z m580 -9 c0 -11 -39 -25 -47 -18 -3 3 -2 10 2 16 8 13 45 15 45 2z m-550
-41 c0 -21 -26 -38 -38 -25 -4 4 -1 10 6 12 6 3 12 11 12 19 0 8 5 14 10 14 6
0 10 -9 10 -20z m-977 -37 c-7 -2 -19 -2 -25 0 -7 3 -2 5 12 5 14 0 19 -2 13
-5z m966 -6 c-2 -1 -12 -9 -21 -16 -15 -12 -18 -11 -18 3 0 10 8 16 22 16 12
0 19 -1 17 -3z m51 -124 c0 -7 -5 -13 -10 -13 -12 0 -30 41 -23 53 6 10 32
-23 33 -40z m236 -232 c0 -11 -5 -17 -13 -14 -7 3 -13 11 -13 19 0 8 6 14 13
14 7 0 13 -8 13 -19z m-261 -1 c3 -5 1 -10 -4 -10 -22 0 -10 -18 15 -24 l27
-7 -21 -19 c-12 -11 -28 -17 -36 -14 -8 3 -27 -1 -43 -10 l-29 -15 4 31 c4 24
8 29 24 25 15 -4 22 2 30 24 10 30 22 37 33 19z m215 0 c0 -5 -2 -10 -4 -10
-3 0 -8 5 -11 10 -3 6 -1 10 4 10 6 0 11 -4 11 -10z m-130 -70 c0 -5 -2 -10
-4 -10 -3 0 -8 5 -11 10 -3 6 -1 10 4 10 6 0 11 -4 11 -10z m-190 -4 c0 -3 -4
-8 -10 -11 -5 -3 -10 -1 -10 4 0 6 5 11 10 11 6 0 10 -2 10 -4z m130 -53 c0
-20 -3 -24 -11 -16 -7 7 -9 19 -6 27 10 24 17 19 17 -11z m140 -13 c0 -5 -4
-10 -10 -10 -5 0 -10 5 -10 10 0 6 5 10 10 10 6 0 10 -4 10 -10z m-404 -48
c11 -10 26 -17 34 -15 11 3 11 2 3 -4 -6 -5 -10 -25 -9 -46 2 -28 0 -35 -9
-27 -6 5 -15 7 -18 3 -4 -3 -7 1 -7 10 0 8 6 18 13 20 6 3 -3 8 -21 12 -28 7
-32 11 -28 34 6 33 5 31 14 31 5 0 17 -8 28 -18z m128 -76 c-6 -15 -24 -23
-24 -11 0 8 24 34 28 30 1 -1 0 -10 -4 -19z m-155 -20 c9 -10 8 -16 -4 -26
-13 -11 -15 -8 -15 14 0 30 3 32 19 12z m43 -38 c-7 -7 -12 -8 -12 -2 0 14 12
26 19 19 2 -3 -1 -11 -7 -17z m-42 -33 c-7 -9 -15 -13 -19 -10 -3 3 1 10 9 15
21 14 24 12 10 -5z m8 -84 c3 -16 -1 -22 -10 -19 -7 3 -15 15 -16 27 -3 16 1
22 10 19 7 -3 15 -15 16 -27z m79 -897 c-9 -9 -28 6 -21 18 4 6 10 6 17 -1 6
-6 8 -13 4 -17z m3903 -40 c0 -8 -8 -14 -17 -13 -10 0 -13 3 -6 5 7 3 9 12 6
21 -4 11 -2 14 5 9 7 -4 12 -14 12 -22z m350 -109 l25 -13 -28 -7 c-15 -4 -39
-4 -53 -1 -21 6 -24 9 -14 21 15 18 37 18 70 0z m-216 -10 c16 -9 35 -24 43
-34 7 -10 23 -21 37 -25 52 -13 141 -199 106 -221 -5 -3 -10 -17 -10 -30 0
-31 -24 -46 -125 -79 -76 -25 -83 -26 -118 -11 -20 8 -58 15 -84 15 -63 0
-260 42 -298 63 -16 9 -61 46 -100 81 l-70 65 32 11 c19 7 36 22 43 40 18 44
39 58 55 37 7 -9 20 -17 29 -17 30 0 31 -30 1 -54 -32 -26 -29 -55 10 -80 15
-10 25 -26 25 -40 0 -13 6 -29 14 -35 10 -9 249 -36 251 -28 4 22 32 47 71 65
47 22 51 27 62 77 10 42 10 63 0 101 -7 27 -18 53 -25 57 -14 8 -17 39 -6 50
10 11 25 8 57 -8z m-641 -235 c26 -25 29 -32 17 -40 -8 -5 -11 -12 -7 -16 3
-4 13 -1 22 6 8 7 15 10 15 7 0 -3 3 -14 7 -24 6 -15 4 -16 -9 -6 -8 7 -18 10
-21 6 -4 -3 -13 0 -22 7 -17 14 -18 11 -16 -45 l0 -30 -14 30 c-8 17 -14 42
-15 57 0 15 -4 38 -10 52 -14 37 12 35 53 -4z m233 -195 c18 -13 18 -14 -4 -8
-12 3 -25 9 -28 14 -8 14 10 11 32 -6z m-196 -16 c0 -6 -4 -7 -10 -4 -5 3 -10
11 -10 16 0 6 5 7 10 4 6 -3 10 -11 10 -16z m273 -16 c-7 -2 -19 -2 -25 0 -7
3 -2 5 12 5 14 0 19 -2 13 -5z m327 -33 c0 -9 -24 -12 -128 -13 -31 0 -41 -4
-38 -14 6 -14 -3 -16 -28 -7 -9 3 -13 10 -10 15 3 5 -4 9 -15 9 -12 0 -21 5
-21 10 0 6 47 10 120 10 73 0 120 -4 120 -10z m-4049 -902 c6 -13 19 -31 28
-41 35 -41 50 -151 51 -373 0 -116 4 -214 9 -220 5 -5 13 -40 16 -77 4 -38 13
-84 21 -103 13 -31 13 -34 -3 -34 -9 0 -13 -3 -10 -7 4 -3 -2 -12 -13 -20 -29
-20 -25 -33 10 -33 20 0 30 -5 30 -15 0 -13 4 -14 21 -5 18 10 26 6 60 -28 21
-22 39 -47 39 -56 0 -8 8 -17 19 -21 16 -5 51 -42 167 -179 13 -15 24 -33 24
-39 0 -6 8 -29 19 -51 18 -40 23 -58 56 -178 14 -51 27 -68 108 -149 51 -50
108 -99 128 -110 20 -10 65 -46 100 -79 35 -34 78 -67 94 -75 50 -22 127 -120
177 -225 31 -63 82 -122 130 -146 18 -9 56 -33 83 -54 28 -21 59 -41 71 -44
27 -8 82 -67 68 -73 -6 -2 -20 -10 -30 -17 -15 -12 -16 -16 -5 -30 22 -26 49
-20 56 14 4 17 11 30 16 30 17 0 70 -55 74 -79 2 -13 6 -24 7 -25 75 -33 140
-70 144 -81 4 -8 15 -15 25 -15 10 0 19 -7 19 -15 0 -9 9 -15 24 -15 13 0 29
-7 36 -15 7 -8 24 -15 38 -15 14 0 53 -16 88 -35 l62 -35 234 0 235 0 13 -24
c14 -26 40 -25 40 3 0 12 12 17 51 19 43 3 55 -1 73 -20 l21 -23 3 28 c3 26 5
27 66 27 125 0 208 51 359 223 40 46 63 65 76 62 11 -2 22 3 25 11 7 18 46 18
46 0 0 -8 -5 -27 -12 -43 -7 -15 -15 -91 -19 -168 -9 -173 -18 -248 -33 -257
-7 -5 -6 -8 3 -8 8 0 31 -7 52 -17 29 -12 41 -26 54 -59 9 -24 14 -53 10 -64
-9 -27 -45 -50 -83 -53 -26 -2 -32 -7 -37 -33 -3 -17 -20 -53 -38 -80 -91
-139 -155 -191 -342 -280 -27 -13 -66 -33 -85 -43 -77 -43 -221 -111 -242
-115 -13 -2 -54 -16 -93 -31 -38 -14 -70 -25 -70 -24 0 1 -31 -7 -70 -19 -38
-11 -92 -24 -120 -30 -150 -29 -206 -46 -266 -77 -40 -20 -100 -40 -150 -50
-46 -8 -120 -30 -164 -48 -78 -32 -175 -83 -185 -98 -5 -7 -35 -16 -71 -23
-37 -6 -65 -21 -81 -42 -10 -12 -53 -39 -96 -59 -48 -23 -92 -53 -117 -79 -23
-24 -50 -46 -61 -50 -17 -5 -22 2 -36 62 -9 37 -19 83 -22 102 -4 19 -22 53
-41 75 -20 22 -41 52 -48 67 -6 16 -15 28 -19 28 -5 0 -8 4 -8 10 0 13 -39 68
-75 106 -33 35 -42 47 -68 86 -9 15 -30 34 -45 42 -15 9 -38 31 -52 50 -14 20
-28 36 -32 36 -3 0 -31 24 -61 54 -31 30 -58 52 -61 49 -13 -14 -387 383 -411
436 -10 23 -23 46 -30 51 -6 5 -20 36 -30 67 -10 32 -23 72 -29 88 -6 17 -10
33 -8 38 1 4 -2 7 -8 7 -6 0 -10 107 -10 300 0 222 3 300 12 300 6 0 8 3 5 6
-3 4 -2 14 2 23 5 9 14 70 21 136 6 66 19 147 28 180 15 53 17 121 17 553 0
270 3 492 6 492 4 0 9 9 12 20 3 14 14 20 31 20 39 0 32 26 -14 46 l-39 18 -1
393 c0 246 4 393 10 393 5 0 15 -10 21 -22z m8049 -357 c0 -79 0 -80 28 -83
l27 -3 3 -152 c2 -140 4 -153 22 -163 17 -9 20 -21 20 -85 0 -43 -4 -75 -10
-75 -5 0 -10 -18 -10 -40 0 -22 -4 -40 -10 -40 -6 0 -10 45 -10 114 0 66 -4
117 -10 121 -6 4 -10 57 -10 126 l0 119 -40 0 -40 0 0 120 c0 113 1 120 20
120 18 0 20 -7 20 -79z m-8210 -2051 c0 -10 -8 -23 -17 -28 -15 -9 -16 -32
-14 -218 l2 -208 31 -45 c16 -25 43 -74 59 -109 17 -35 36 -71 44 -79 8 -8 15
-21 15 -29 0 -18 25 -47 170 -198 134 -140 154 -160 206 -204 114 -97 146
-122 154 -122 6 0 9 -3 8 -7 -4 -13 34 -53 74 -79 21 -13 45 -39 54 -56 9 -18
22 -36 28 -40 6 -4 7 -8 2 -8 -5 0 4 -12 21 -27 16 -16 45 -50 64 -78 19 -27
54 -76 78 -108 33 -44 47 -73 57 -125 15 -69 21 -97 24 -97 1 0 3 -9 5 -20 2
-11 11 -25 20 -32 11 -7 14 -17 9 -25 -19 -32 -28 -35 -64 -26 -50 14 -151 57
-180 78 -14 9 -46 25 -71 34 -26 10 -63 36 -84 57 -21 22 -50 46 -65 54 -25
13 -51 44 -75 90 -6 11 -19 21 -30 23 -11 2 -78 22 -150 44 -71 22 -159 49
-195 60 -36 11 -94 26 -129 34 -36 8 -69 19 -75 24 -7 5 -29 11 -51 14 -22 2
-56 11 -75 19 -19 8 -69 17 -112 20 -74 6 -188 40 -188 57 0 4 -15 15 -32 24
-35 18 -44 23 -123 72 -70 43 -182 94 -191 86 -4 -4 -4 -2 -1 5 4 6 -4 15 -21
21 -15 5 -45 27 -67 47 -37 36 -100 72 -186 108 -19 8 -60 38 -90 66 -30 29
-72 61 -94 71 -22 10 -49 28 -59 39 -11 12 -37 32 -60 45 -46 27 -86 69 -86
90 0 9 19 15 64 18 49 4 77 13 116 37 36 22 63 31 93 31 24 0 69 7 100 15 32
8 64 15 72 15 8 0 53 19 102 42 82 39 127 65 293 173 100 64 116 74 216 126
52 27 117 67 146 88 28 22 68 48 87 58 20 10 62 39 94 66 59 48 77 52 77 17z"/>
<path d="M4676 8082 c-3 -6 1 -15 8 -21 8 -7 17 -8 20 -3 3 6 -1 15 -8 21 -8
7 -17 8 -20 3z"/>
<path d="M4636 8034 c-4 -9 -4 -19 -1 -22 3 -3 5 1 5 9 0 12 2 12 10 -1 5 -8
11 -12 14 -10 2 3 -1 13 -9 23 -12 16 -13 16 -19 1z"/>
<path d="M4485 8029 c-4 -6 -5 -13 -2 -16 7 -7 27 6 27 18 0 12 -17 12 -25 -2z"/>
<path d="M4260 8021 c0 -17 34 -22 49 -6 14 13 12 15 -17 15 -18 0 -32 -4 -32
-9z"/>
<path d="M4518 8001 c-19 -19 -24 -41 -9 -41 5 0 19 14 31 30 24 34 8 42 -22
11z"/>
<path d="M4599 8020 c0 -3 -2 -13 -4 -22 -3 -19 21 -32 31 -17 3 6 -1 18 -10
27 -9 9 -16 14 -17 12z"/>
<path d="M4196 7998 c-17 -10 -22 -28 -7 -28 5 0 19 8 31 18 17 14 19 19 7 19
-8 0 -23 -4 -31 -9z"/>
<path d="M4701 8000 c-14 -8 -7 -30 9 -30 11 0 21 28 12 34 -5 3 -14 1 -21 -4z"/>
<path d="M4806 7984 c-3 -9 -2 -23 4 -32 7 -14 9 -10 10 16 0 35 -5 41 -14 16z"/>
<path d="M4142 7970 c0 -14 2 -19 5 -12 2 6 2 18 0 25 -3 6 -5 1 -5 -13z"/>
<path d="M4240 7970 c0 -5 -16 -10 -35 -10 -28 0 -38 -5 -44 -22 -6 -14 -5
-27 1 -33 7 -7 12 -6 15 3 3 6 12 12 20 12 10 0 13 -6 9 -16 -5 -14 -4 -15 9
-4 9 7 14 19 11 26 -3 7 2 15 10 18 12 4 14 1 9 -14 -4 -14 -2 -20 8 -20 8 0
17 8 20 18 2 9 8 25 12 35 6 14 2 17 -19 17 -14 0 -26 -4 -26 -10z"/>
<path d="M4100 7954 c0 -8 5 -12 10 -9 6 3 10 10 10 16 0 5 -4 9 -10 9 -5 0
-10 -7 -10 -16z"/>
<path d="M4306 7941 c-3 -5 1 -14 9 -21 12 -10 15 -10 15 3 0 19 -16 31 -24
18z"/>
<path d="M4440 7913 c0 -15 46 -40 56 -30 3 3 1 13 -4 23 -12 21 -52 26 -52 7z"/>
<path d="M4290 7909 c0 -5 5 -7 10 -4 6 3 10 8 10 11 0 2 -4 4 -10 4 -5 0 -10
-5 -10 -11z"/>
<path d="M4595 7900 c-10 -12 -19 -30 -20 -41 -2 -18 2 -20 27 -15 39 8 61 31
53 56 -8 26 -37 26 -60 0z"/>
<path d="M4100 7890 c0 -5 9 -10 19 -10 11 0 23 5 26 10 4 6 -5 10 -19 10 -14
0 -26 -4 -26 -10z"/>
<path d="M4240 7871 c0 -5 -8 -7 -19 -4 -10 3 -22 0 -26 -7 -10 -15 -7 -17 50
-23 28 -4 44 -4 37 -1 -6 3 -9 10 -6 16 4 6 0 14 -7 19 -18 11 -29 11 -29 0z"/>
<path d="M4385 7860 c3 -5 8 -10 11 -10 2 0 4 5 4 10 0 6 -5 10 -11 10 -5 0
-7 -4 -4 -10z"/>
<path d="M4471 7851 c-12 -8 -12 -12 -2 -25 16 -19 45 -21 60 -3 21 26 -25 48
-58 28z"/>
<path d="M4133 7843 c-7 -2 -13 -12 -13 -20 0 -10 6 -13 16 -9 9 3 18 6 20 6
2 0 4 7 4 15 0 15 -6 17 -27 8z"/>
<path d="M4330 7815 c0 -29 8 -32 26 -7 19 24 17 32 -6 32 -15 0 -20 -7 -20
-25z"/>
<path d="M4215 7810 c4 -6 11 -8 16 -5 14 9 11 15 -7 15 -8 0 -12 -5 -9 -10z"/>
<path d="M3896 7795 c-19 -14 -18 -15 13 -15 21 0 31 4 29 12 -6 18 -21 19
-42 3z"/>
<path d="M4045 7800 c3 -5 8 -10 11 -10 2 0 4 5 4 10 0 6 -5 10 -11 10 -5 0
-7 -4 -4 -10z"/>
<path d="M4660 7799 c0 -5 5 -7 10 -4 6 3 10 8 10 11 0 2 -4 4 -10 4 -5 0 -10
-5 -10 -11z"/>
<path d="M4417 7778 c-15 -11 -27 -26 -27 -35 0 -12 2 -12 16 1 8 9 19 16 24
16 8 0 23 30 18 36 -2 1 -15 -7 -31 -18z"/>
<path d="M4490 7785 c-7 -9 -11 -18 -8 -20 7 -8 38 5 38 15 0 17 -18 19 -30 5z"/>
<path d="M3783 7763 c-15 -5 -17 -23 -4 -23 5 0 11 7 15 15 3 8 4 15 3 14 -1
0 -8 -3 -14 -6z"/>
<path d="M4395 7692 c-12 -4 -21 -18 -23 -34 -4 -32 17 -49 25 -19 3 12 13 21
24 21 12 0 19 7 19 20 0 20 -10 23 -45 12z"/>
<path d="M4415 7641 c-7 -12 12 -24 25 -16 11 7 4 25 -10 25 -5 0 -11 -4 -15
-9z"/>
<path d="M4423 7583 c-15 -5 -18 -33 -4 -33 13 0 33 28 24 33 -4 2 -14 2 -20
0z"/>
<path d="M4160 7570 c0 -5 5 -10 11 -10 5 0 7 5 4 10 -3 6 -8 10 -11 10 -2 0
-4 -4 -4 -10z"/>
<path d="M3780 7550 c0 -5 4 -10 9 -10 6 0 13 5 16 10 3 6 -1 10 -9 10 -9 0
-16 -4 -16 -10z"/>
<path d="M4307 7537 c-19 -15 -30 -64 -17 -72 5 -3 10 1 10 9 0 8 10 16 23 18
13 2 23 11 25 24 4 26 -20 37 -41 21z"/>
<path d="M4235 7469 c-4 -6 -5 -12 -2 -15 2 -3 7 2 10 11 7 17 1 20 -8 4z"/>
<path d="M4005 7413 c-11 -25 -15 -65 -9 -75 12 -19 32 14 32 52 1 42 -11 53
-23 23z"/>
<path d="M4040 7399 c0 -5 5 -7 10 -4 6 3 10 8 10 11 0 2 -4 4 -10 4 -5 0 -10
-5 -10 -11z"/>
<path d="M4255 7390 c-3 -5 -1 -10 4 -10 6 0 11 5 11 10 0 6 -2 10 -4 10 -3 0
-8 -4 -11 -10z"/>
<path d="M3945 7380 c3 -5 8 -10 11 -10 2 0 4 5 4 10 0 6 -5 10 -11 10 -5 0
-7 -4 -4 -10z"/>
<path d="M4311 7331 c-10 -7 -11 -10 0 -16 9 -6 6 -11 -12 -18 -13 -6 -28 -9
-32 -8 -5 1 -7 -6 -5 -16 5 -25 58 -30 75 -7 9 13 10 21 2 31 -6 7 -9 20 -5
28 6 17 -2 19 -23 6z"/>
<path d="M3937 7314 c-8 -8 1 -24 14 -24 5 0 9 7 9 15 0 15 -12 20 -23 9z"/>
<path d="M4052 7300 c-17 -28 -15 -30 13 -17 14 7 25 18 25 25 0 19 -24 14
-38 -8z"/>
<path d="M3972 7288 c-22 -14 -30 -24 -24 -30 12 -12 35 -1 27 13 -4 5 0 9 8
9 8 0 20 7 27 15 17 20 2 18 -38 -7z"/>
<path d="M4155 7300 c-3 -5 -15 -10 -26 -10 -10 0 -19 -6 -19 -13 0 -7 -9 -20
-20 -30 -25 -21 -25 -29 0 -58 14 -16 20 -19 19 -9 -3 31 2 37 24 33 24 -4 31
0 65 38 21 24 22 28 7 43 -19 18 -41 21 -50 6z"/>
<path d="M4065 7270 c-3 -5 -2 -10 4 -10 5 0 13 5 16 10 3 6 2 10 -4 10 -5 0
-13 -4 -16 -10z"/>
<path d="M5435 7245 c-141 -31 -254 -63 -265 -75 -3 -3 -27 -16 -55 -30 -27
-14 -51 -28 -53 -32 -2 -5 -8 -8 -14 -8 -13 0 -54 -32 -122 -95 -48 -44 -54
-55 -59 -98 -4 -44 -3 -49 20 -58 51 -19 276 -4 308 21 6 4 29 10 53 14 24 3
51 10 60 15 21 12 54 24 67 25 6 1 26 9 45 18 49 24 138 38 255 41 107 2 238
-16 243 -33 2 -5 13 -10 24 -10 18 0 92 -46 127 -78 8 -8 32 -25 53 -38 36
-23 43 -24 76 -13 50 16 112 49 114 60 4 27 1 34 -21 39 -14 3 -32 18 -40 32
-37 63 -90 119 -148 157 -35 23 -66 41 -70 41 -5 0 -19 9 -33 20 -14 11 -31
20 -38 20 -13 0 -91 32 -124 50 -10 6 -42 10 -72 10 -30 0 -57 4 -60 8 -8 14
-206 12 -271 -3z"/>
<path d="M3822 7243 c-23 -9 -1 -23 26 -17 40 10 51 24 17 23 -17 0 -36 -3
-43 -6z"/>
<path d="M4207 7236 c-3 -8 2 -21 12 -30 17 -16 19 -15 24 5 3 13 4 26 1 31
-8 13 -31 9 -37 -6z"/>
<path d="M3890 7207 c0 -5 -9 -7 -21 -4 -48 13 -67 -20 -23 -40 22 -10 26 -9
34 11 5 13 15 26 23 29 12 5 14 0 7 -23 -5 -18 -4 -32 3 -40 9 -8 7 -15 -7
-25 -11 -8 -16 -21 -13 -30 10 -25 26 -17 32 18 12 59 48 83 97 63 11 -5 18
-1 23 14 4 12 4 24 1 28 -11 10 -156 9 -156 -1z"/>
<path d="M4211 7171 c-9 -6 -10 -11 -2 -15 6 -4 15 -5 20 -2 5 4 11 0 13 -6 3
-8 9 -4 17 10 11 20 9 22 -11 22 -13 0 -29 -4 -37 -9z"/>
<path d="M4155 7131 c6 -21 -2 -26 -32 -22 -7 1 -13 -3 -13 -9 0 -9 11 -12 57
-14 25 -1 24 58 -1 62 -14 3 -17 -1 -11 -17z"/>
<path d="M4105 7130 c3 -5 8 -10 11 -10 2 0 4 5 4 10 0 6 -5 10 -11 10 -5 0
-7 -4 -4 -10z"/>
<path d="M4262 7069 c2 -6 8 -10 13 -10 5 0 11 4 13 10 2 6 -4 11 -13 11 -9 0
-15 -5 -13 -11z"/>
<path d="M3870 7060 c0 -5 5 -10 10 -10 6 0 10 5 10 10 0 6 -4 10 -10 10 -5 0
-10 -4 -10 -10z"/>
<path d="M4199 7062 c-1 -4 -1 -10 0 -14 0 -5 -3 -8 -9 -8 -5 0 -10 -7 -10
-15 0 -8 -9 -15 -20 -15 -11 0 -20 -6 -20 -14 0 -7 -10 -17 -22 -21 -21 -7
-20 -8 10 -12 17 -2 32 -7 32 -9 0 -18 -24 -44 -40 -44 -27 0 -34 -17 -10 -23
28 -7 25 -25 -5 -33 -36 -9 -40 -1 -29 56 10 45 9 50 -8 50 -11 0 -18 -7 -18
-19 0 -24 -23 -43 -44 -35 -11 4 -16 2 -14 -6 2 -6 -8 -16 -21 -21 -22 -9 -23
-8 -18 21 5 22 3 30 -7 30 -8 0 -16 -8 -19 -19 -3 -14 -11 -17 -30 -14 -13 3
-28 0 -31 -6 -4 -6 -18 -11 -31 -11 -15 0 -23 -5 -20 -13 6 -14 -62 -39 -70
-26 -3 4 -1 10 5 14 5 3 10 11 10 16 0 5 -11 2 -25 -7 -14 -9 -25 -23 -25 -30
0 -8 -4 -14 -10 -14 -5 0 -10 -7 -10 -15 0 -19 29 -32 39 -18 6 9 45 33 54 33
3 0 5 -11 5 -25 0 -27 -8 -31 -25 -14 -15 15 -33 3 -33 -21 0 -10 -8 -24 -17
-30 -15 -9 -14 -10 6 -4 16 4 21 3 17 -5 -9 -14 4 -14 24 0 11 8 12 12 2 16
-6 2 -10 9 -6 14 8 13 51 11 58 -3 3 -7 3 0 -1 16 -5 25 -4 28 16 21 12 -4 21
-2 21 4 0 6 -9 11 -20 11 -11 0 -20 5 -20 11 0 7 11 9 29 6 20 -4 33 -1 45 12
9 10 14 20 11 23 -3 3 2 11 11 19 16 13 17 11 11 -25 -4 -23 -15 -45 -27 -53
-29 -21 -24 -77 7 -81 18 -3 24 3 31 30 6 21 5 38 -1 46 -8 10 -5 14 10 18 12
3 23 14 26 24 2 9 17 20 33 23 35 6 41 2 24 -18 -9 -11 -10 -19 -3 -26 8 -8 6
-16 -7 -29 -10 -10 -20 -24 -23 -31 -4 -11 -7 -11 -14 -1 -7 10 -14 8 -28 -8
-10 -11 -15 -20 -12 -20 14 0 -28 -40 -43 -40 -8 -1 -3 -7 13 -16 15 -8 27
-21 27 -29 0 -14 12 -20 33 -16 4 1 17 -4 28 -10 30 -15 46 3 41 46 -4 32 -20
52 -19 23 1 -34 -4 -49 -15 -45 -7 2 -12 11 -10 19 1 9 -8 19 -20 23 l-23 8
23 4 c13 3 26 11 29 18 3 10 14 12 34 8 26 -5 29 -3 29 20 0 14 -6 28 -12 30
-8 3 -6 6 5 6 10 1 17 9 17 21 0 11 5 20 11 20 6 0 26 12 45 26 40 31 45 21 9
-19 -14 -15 -25 -27 -23 -28 18 -5 70 -4 80 3 9 5 9 8 1 8 -13 0 -6 37 9 46 5
3 15 1 23 -6 10 -9 15 -7 20 9 3 12 3 26 0 32 -4 5 1 17 11 24 16 12 17 16 5
24 -10 7 -20 3 -33 -14 -10 -13 -18 -28 -18 -33 0 -5 -6 -12 -13 -15 -10 -4
-14 8 -14 46 -1 45 0 49 9 27 10 -23 11 -23 16 -5 2 11 14 29 27 40 30 26 42
65 21 65 -9 0 -16 4 -16 9 0 10 -39 22 -41 13z m-284 -320 c-6 -16 -7 -16 -16
1 -8 13 -7 23 3 34 12 15 13 15 16 -1 2 -9 1 -25 -3 -34z"/>
<path d="M4013 7053 c-24 -3 -33 -9 -33 -23 0 -25 -11 -51 -19 -46 -3 2 -11
-7 -18 -20 -6 -13 -7 -24 -2 -24 5 0 9 5 9 10 0 6 9 10 19 10 12 0 23 11 30
30 5 17 21 34 35 39 27 11 45 32 24 29 -7 0 -28 -3 -45 -5z"/>
<path d="M4116 7044 c-9 -23 -7 -34 5 -34 14 0 39 25 39 39 0 17 -37 13 -44
-5z"/>
<path d="M4052 6998 c-19 -19 -14 -30 8 -18 11 6 20 15 20 20 0 14 -14 12 -28
-2z"/>
<path d="M4325 7000 c-3 -5 -17 -10 -31 -10 -15 0 -24 -6 -24 -16 0 -10 6 -14
18 -10 9 2 27 7 40 11 12 3 22 13 22 21 0 16 -16 19 -25 4z"/>
<path d="M4376 7003 c-12 -12 -6 -33 9 -33 8 0 15 6 15 14 0 17 -14 28 -24 19z"/>
<path d="M3695 6990 c4 -6 11 -8 16 -5 14 9 11 15 -7 15 -8 0 -12 -5 -9 -10z"/>
<path d="M3978 6933 c7 -3 16 -2 19 1 4 3 -2 6 -13 5 -11 0 -14 -3 -6 -6z"/>
<path d="M4298 6906 c-24 -17 -25 -86 -2 -86 26 0 54 20 54 38 -1 16 -2 16
-14 0 -21 -29 -29 -21 -23 22 3 22 4 40 4 40 -1 0 -10 -7 -19 -14z"/>
<path d="M4429 6829 c-11 -11 -18 -23 -15 -26 9 -9 34 5 46 26 14 28 -3 28
-31 0z"/>
<path d="M5338 6777 c-32 -5 -58 -13 -58 -19 0 -5 -30 -8 -67 -6 -73 2 -120
-5 -137 -22 -5 -5 -18 -10 -28 -10 -9 0 -28 -10 -41 -22 -13 -13 -36 -32 -50
-43 -14 -11 -26 -25 -27 -31 0 -6 -16 -29 -36 -50 -89 -96 -83 -191 20 -296
25 -26 46 -52 46 -57 0 -5 6 -11 13 -14 17 -6 67 -107 67 -134 0 -23 51 -75
71 -73 27 4 37 0 41 -18 6 -22 94 -65 119 -59 10 3 16 0 13 -7 -5 -13 69 -32
161 -42 33 -4 66 -12 74 -18 11 -8 13 -8 8 1 -4 6 -2 13 5 15 19 7 58 -3 52
-13 -3 -5 19 -8 48 -7 50 1 51 2 11 5 -81 8 -43 20 52 18 54 -1 95 2 95 7 0 5
-62 8 -150 7 -83 -1 -153 1 -157 5 -3 3 74 6 173 6 119 0 174 -4 164 -10 -13
-8 -12 -10 3 -10 9 0 17 4 17 9 0 5 18 11 40 13 22 2 40 0 40 -4 0 -5 -10 -8
-22 -9 -21 0 -21 -1 -4 -8 10 -4 31 -5 47 -3 22 3 29 10 29 27 0 16 15 31 61
58 66 39 79 43 95 27 18 -18 37 15 29 47 -16 59 -14 69 16 80 27 10 29 15 24
50 -9 71 -16 91 -41 109 -13 10 -24 25 -24 32 0 15 -123 142 -137 142 -6 0
-23 12 -39 26 -16 14 -41 32 -56 40 -16 8 -28 21 -28 29 0 8 -7 15 -15 15 -8
0 -15 6 -15 14 0 12 -46 38 -67 38 -4 0 -19 6 -33 13 -14 7 -42 21 -63 31 -45
22 -91 62 -100 87 -4 9 -17 21 -29 26 -38 14 -150 18 -210 8z m66 -292 c3 -8
1 -15 -4 -15 -6 0 -10 7 -10 15 0 8 2 15 4 15 2 0 6 -7 10 -15z m146 -5 c0 -5
-5 -10 -11 -10 -5 0 -7 5 -4 10 3 6 8 10 11 10 2 0 4 -4 4 -10z m-230 -130 c0
-6 -8 -22 -17 -36 -12 -19 -14 -30 -6 -43 6 -9 14 -41 18 -71 16 -125 78 -166
260 -171 92 -3 156 14 175 44 15 25 23 154 9 162 -14 9 -11 41 5 54 20 17 53
1 111 -53 28 -26 76 -68 107 -92 31 -25 59 -52 62 -59 2 -7 -3 -28 -12 -46
-26 -50 -100 -72 -215 -65 -49 2 -100 1 -114 -5 -16 -6 -47 -6 -86 1 -34 5
-88 12 -120 16 -45 4 -66 12 -91 35 -23 20 -44 29 -67 29 -19 0 -47 8 -62 19
-25 16 -80 86 -113 143 -7 11 -17 25 -23 31 -19 19 -12 36 22 53 17 9 34 20
37 25 19 28 120 53 120 29z m-273 -92 c-3 -8 -6 -5 -6 6 -1 11 2 17 5 13 3 -3
4 -12 1 -19z m69 -99 c8 -8 14 -22 14 -30 -1 -9 -5 -7 -12 6 -7 11 -22 31 -35
45 -13 14 -23 36 -23 50 0 22 3 20 21 -15 12 -22 27 -47 35 -56z m-51 11 c3
-5 1 -10 -4 -10 -6 0 -11 5 -11 10 0 6 2 10 4 10 3 0 8 -4 11 -10z m115 -100
c6 -11 7 -20 2 -20 -6 0 -12 9 -15 20 -3 11 -3 20 -1 20 2 0 8 -9 14 -20z"/>
<path d="M4480 6750 c0 -11 7 -20 15 -20 8 0 15 9 15 20 0 11 -7 20 -15 20 -8
0 -15 -9 -15 -20z"/>
<path d="M4311 6734 c0 -11 3 -14 6 -6 3 7 2 16 -1 19 -3 4 -6 -2 -5 -13z"/>
<path d="M4110 6720 c-17 -11 -8 -23 14 -18 9 2 12 8 8 15 -5 8 -13 9 -22 3z"/>
<path d="M3705 6700 c-3 -5 -1 -10 4 -10 6 0 11 5 11 10 0 6 -2 10 -4 10 -3 0
-8 -4 -11 -10z"/>
<path d="M4330 6685 c-13 -14 -18 -25 -12 -25 7 0 12 4 12 9 0 5 9 11 20 14
11 3 20 10 20 16 0 18 -15 13 -40 -14z"/>
<path d="M4056 6681 c-4 -7 -5 -15 -2 -18 9 -9 19 4 14 18 -4 11 -6 11 -12 0z"/>
<path d="M4362 6649 c-7 -12 -11 -24 -7 -27 7 -8 25 17 25 36 0 17 -3 15 -18
-9z"/>
<path d="M4230 6651 c0 -5 -11 -12 -25 -15 -24 -6 -36 -26 -15 -26 5 0 7 -7 4
-15 -4 -8 -1 -15 5 -15 6 0 8 -6 5 -14 -3 -8 -1 -17 4 -20 6 -3 13 1 16 10 4
11 14 14 35 9 17 -4 32 -2 36 5 4 6 15 8 26 5 17 -6 19 -3 13 22 -9 37 -12 39
-34 25 -31 -19 -42 -15 -30 9 17 30 4 36 -19 8 -20 -24 -20 -24 -14 -1 3 12 3
22 -1 22 -3 0 -6 -4 -6 -9z"/>
<path d="M3853 6621 c-10 -15 -9 -22 6 -35 19 -17 41 -21 41 -7 0 5 -7 12 -16
15 -12 5 -14 10 -5 20 6 7 8 16 4 19 -10 11 -17 8 -30 -12z"/>
<path d="M3785 6590 c3 -5 8 -10 11 -10 2 0 4 5 4 10 0 6 -5 10 -11 10 -5 0
-7 -4 -4 -10z"/>
<path d="M3926 6544 c-4 -9 -4 -19 -2 -21 8 -8 26 8 26 23 0 19 -16 18 -24 -2z"/>
<path d="M3660 6540 c0 -5 5 -10 10 -10 6 0 10 5 10 10 0 6 -4 10 -10 10 -5 0
-10 -4 -10 -10z"/>
<path d="M3835 6540 c-3 -5 -1 -10 4 -10 6 0 11 5 11 10 0 6 -2 10 -4 10 -3 0
-8 -4 -11 -10z"/>
<path d="M4003 6537 c-19 -24 -23 -36 -14 -41 5 -3 16 5 25 19 16 24 6 45 -11
22z"/>
<path d="M4260 6520 c-21 -7 -19 -8 18 -9 23 -1 42 4 42 9 0 12 -24 12 -60 0z"/>
<path d="M3841 6504 c0 -11 3 -14 6 -6 3 7 2 16 -1 19 -3 4 -6 -2 -5 -13z"/>
<path d="M4200 6480 c11 -20 40 -28 40 -10 0 9 -31 30 -45 30 -3 0 -1 -9 5
-20z"/>
<path d="M3929 6464 c-11 -14 -10 -18 6 -30 17 -13 18 -17 7 -35 -16 -25 -6
-41 11 -18 7 8 20 18 30 22 20 8 14 27 -9 27 -8 0 -14 10 -14 25 0 29 -12 32
-31 9z"/>
<path d="M4355 6450 c-3 -5 -1 -10 4 -10 6 0 11 5 11 10 0 6 -2 10 -4 10 -3 0
-8 -4 -11 -10z"/>
<path d="M4081 6434 c0 -11 3 -14 6 -6 3 7 2 16 -1 19 -3 4 -6 -2 -5 -13z"/>
<path d="M4194 6435 c-11 -27 7 -38 27 -16 24 26 24 31 -1 31 -11 0 -23 -7
-26 -15z"/>
<path d="M4130 6420 c-8 -5 -11 -12 -7 -16 4 -4 -1 -12 -9 -19 -11 -8 -14 -19
-9 -34 5 -17 10 -20 18 -12 16 16 27 14 21 -4 -4 -9 0 -15 10 -15 9 0 17 5 18
10 3 25 2 30 -7 30 -5 -1 -12 15 -15 34 -4 28 -8 34 -20 26z"/>
<path d="M4195 6380 c-3 -5 1 -10 9 -10 9 0 16 5 16 10 0 6 -4 10 -9 10 -6 0
-13 -4 -16 -10z"/>
<path d="M3900 6360 c0 -5 5 -10 10 -10 6 0 10 5 10 10 0 6 -4 10 -10 10 -5 0
-10 -4 -10 -10z"/>
<path d="M4045 6360 c-3 -5 1 -10 9 -10 9 0 16 5 16 10 0 6 -4 10 -9 10 -6 0
-13 -4 -16 -10z"/>
<path d="M4043 6308 c1 -17 -3 -22 -15 -20 -11 2 -18 -3 -18 -13 0 -9 6 -15
13 -14 26 3 37 -2 37 -16 0 -8 5 -15 11 -15 6 0 8 9 4 20 -5 14 -2 20 9 20 10
0 16 9 16 25 0 17 -4 23 -14 19 -8 -3 -17 -1 -21 5 -11 19 -25 12 -22 -11z"/>
<path d="M4245 6320 c3 -5 -3 -17 -14 -26 -10 -9 -17 -22 -15 -29 6 -14 -70
-85 -92 -85 -9 0 -18 -9 -21 -20 -6 -22 -29 -27 -35 -8 -2 6 -10 8 -16 4 -19
-11 -14 -26 8 -26 11 0 20 -3 20 -6 0 -3 -9 -17 -20 -31 -11 -14 -20 -33 -20
-42 0 -12 -5 -10 -19 8 -14 18 -23 22 -41 16 -15 -5 -20 -4 -16 4 4 6 1 11 -6
11 -7 0 -19 -9 -26 -20 -7 -12 -17 -18 -22 -15 -5 3 -11 1 -14 -4 -10 -15 11
-22 26 -9 7 7 28 14 46 15 38 3 52 -18 31 -45 -13 -15 -12 -16 3 -3 10 7 27
11 38 8 16 -4 26 8 57 69 23 44 43 72 50 70 12 -5 93 79 93 95 0 5 7 9 15 9
20 0 32 50 14 61 -19 12 -32 11 -24 -1z"/>
<path d="M4360 6300 c-6 -11 -17 -20 -24 -20 -8 0 -16 -9 -19 -20 -7 -27 -1
-25 31 9 15 16 34 30 41 33 12 3 12 6 -2 11 -11 4 -20 -1 -27 -13z"/>
<path d="M3880 6260 c0 -5 9 -10 21 -10 11 0 17 5 14 10 -3 6 -13 10 -21 10
-8 0 -14 -4 -14 -10z"/>
<path d="M3947 6253 c-4 -3 -7 -14 -7 -24 0 -18 -17 -23 -90 -31 -14 -2 -25
-9 -25 -18 0 -18 62 -15 85 5 33 27 130 27 130 -1 0 -16 36 -19 45 -4 3 6 -1
13 -10 16 -9 4 -21 18 -26 33 -6 14 -13 21 -17 16 -8 -12 -41 -16 -62 -9 -13
4 -13 6 0 14 13 8 13 10 -1 10 -9 0 -19 -3 -22 -7z"/>
<path d="M3546 6217 c-32 -18 -67 -37 -78 -43 -66 -39 -95 -107 -84 -198 4
-29 14 -62 21 -72 10 -14 14 -49 15 -121 0 -75 5 -112 17 -138 9 -19 21 -35
26 -35 4 0 34 -25 66 -55 44 -42 60 -52 69 -43 20 20 14 32 -52 94 l-64 61 -7
109 c-4 60 -14 124 -21 143 -15 35 -19 161 -6 161 4 0 12 10 17 22 6 12 19 26
30 32 11 6 22 14 25 17 12 15 91 49 112 49 34 0 42 -10 60 -65 18 -57 44 -71
54 -30 4 15 2 31 -5 38 -6 6 -11 18 -11 26 0 8 -11 29 -26 48 -33 44 -77 44
-158 0z"/>
<path d="M4313 6205 c-18 -20 -16 -25 10 -21 12 1 23 10 25 19 4 21 -18 22
-35 2z"/>
<path d="M4397 6176 c-4 -10 -1 -13 8 -9 8 3 12 9 9 14 -7 12 -11 11 -17 -5z"/>
<path d="M3950 6160 c0 -23 10 -26 28 -8 18 18 15 28 -8 28 -13 0 -20 -7 -20
-20z"/>
<path d="M4192 6158 c-17 -17 -15 -28 7 -28 14 0 19 6 18 20 -1 23 -8 25 -25
8z"/>
<path d="M7026 6120 c-9 -16 -16 -32 -16 -36 1 -4 -4 -10 -10 -14 -7 -4 -13
-16 -14 -26 -2 -18 -14 -52 -35 -99 -24 -53 -29 -96 -30 -277 -1 -130 2 -205
10 -224 21 -53 41 -104 44 -114 1 -3 12 -27 24 -55 60 -129 86 -180 107 -204
12 -14 25 -46 29 -71 4 -25 12 -48 18 -52 6 -3 12 -32 15 -63 4 -45 0 -67 -19
-108 -13 -29 -26 -54 -29 -57 -3 -3 -13 -22 -22 -42 -10 -21 -21 -38 -25 -38
-5 0 -14 -12 -20 -27 -21 -47 -72 -102 -111 -119 -20 -9 -55 -25 -77 -35 -22
-10 -49 -19 -60 -18 -11 0 -33 -3 -48 -7 -30 -7 -117 28 -117 47 0 5 -6 9 -14
9 -19 0 -66 57 -66 79 0 10 -11 28 -25 41 -14 13 -25 29 -25 36 0 7 -5 16 -10
19 -21 13 -116 16 -162 5 -39 -10 -48 -17 -57 -42 -16 -45 7 -68 69 -68 25 0
51 5 56 10 6 6 24 14 40 19 37 11 59 -3 68 -44 9 -38 52 -86 104 -115 l40 -23
-14 -40 c-18 -50 -18 -47 9 -47 28 0 47 17 47 44 0 19 7 21 68 23 38 1 81 9
98 18 16 8 35 15 42 15 7 0 24 7 38 16 21 14 29 15 49 4 26 -14 88 -8 111 11
8 6 14 27 14 46 0 26 -5 36 -20 40 -11 3 -20 9 -20 14 0 11 83 143 92 147 5 2
8 10 8 18 0 23 36 16 47 -9 13 -27 9 -162 -5 -197 -5 -14 -17 -32 -26 -39 -20
-17 -21 -40 -1 -47 21 -9 43 12 71 68 32 63 34 189 4 228 -11 14 -20 30 -20
36 0 6 -7 17 -15 24 -11 9 -15 33 -15 84 0 40 -5 77 -11 83 -5 5 -16 33 -24
62 -7 28 -33 81 -58 118 -38 59 -78 148 -66 148 2 0 -6 14 -17 30 -12 17 -31
58 -43 92 -20 56 -22 82 -22 270 -1 169 2 216 16 253 9 25 19 54 22 65 4 11
16 38 28 60 35 63 39 82 17 94 -15 8 -21 5 -36 -19z"/>
<path d="M4220 6105 c-10 -13 -9 -15 9 -15 11 0 21 4 21 9 0 18 -18 21 -30 6z"/>
<path d="M6220 6043 c-17 -38 -32 -70 -32 -73 -9 -40 -65 -149 -84 -164 -31
-24 -74 -89 -74 -110 0 -26 21 -29 46 -5 13 12 24 28 24 35 0 7 14 24 30 38
31 26 72 101 106 191 10 28 21 52 25 55 11 9 31 79 24 90 -15 24 -37 5 -65
-57z"/>
<path d="M3830 6060 c-20 -28 -20 -50 1 -50 5 0 9 14 9 30 0 20 5 30 15 30 8
0 15 5 15 10 0 19 -19 10 -40 -20z"/>
<path d="M3782 6060 c-14 -23 -15 -30 -4 -30 4 0 12 11 19 25 13 30 3 33 -15
5z"/>
<path d="M4165 6072 c-16 -11 -34 -49 -28 -56 13 -13 35 -6 29 9 -3 8 -2 15 2
15 4 0 13 9 20 20 10 16 10 20 0 20 -7 0 -17 -4 -23 -8z"/>
<path d="M3692 6031 c-7 -4 -15 -25 -18 -47 -5 -41 -52 -144 -65 -144 -4 0
-10 -17 -14 -38 -7 -41 9 -87 51 -149 59 -87 80 -58 30 41 -33 66 -35 75 -25
107 7 19 25 52 40 75 42 62 43 181 1 155z"/>
<path d="M4209 6023 c0 -5 -3 -20 -5 -35 -6 -36 13 -36 46 -1 19 20 21 25 7
20 -11 -4 -20 -1 -23 8 -6 16 -23 21 -25 8z"/>
<path d="M3930 6011 c0 -5 3 -17 6 -26 5 -13 8 -14 15 -3 13 20 11 38 -6 38
-8 0 -15 -4 -15 -9z"/>
<path d="M3870 5997 c-29 -14 -43 -72 -16 -61 9 3 16 12 16 19 0 8 12 23 26
34 29 23 13 28 -26 8z"/>
<path d="M3818 5993 c7 -3 16 -2 19 1 4 3 -2 6 -13 5 -11 0 -14 -3 -6 -6z"/>
<path d="M4005 5980 c-3 -11 -11 -20 -16 -20 -6 0 -7 -9 -4 -20 4 -14 2 -20
-8 -20 -15 0 -30 -37 -21 -52 8 -12 42 14 48 36 4 15 8 18 16 10 9 -9 8 -17
-1 -32 -7 -12 -10 -25 -6 -29 5 -4 12 -1 17 6 4 8 23 16 41 18 39 4 48 11 30
23 -8 4 -17 25 -20 46 -4 26 -12 40 -24 42 -9 2 -17 -1 -17 -7 0 -6 7 -11 15
-11 21 0 19 -13 -5 -27 -16 -11 -21 -10 -28 4 -5 9 -7 24 -5 34 7 25 -4 24
-12 -1z m55 -76 c0 -8 -4 -12 -10 -9 -5 3 -10 10 -10 16 0 5 5 9 10 9 6 0 10
-7 10 -16z"/>
<path d="M4151 5906 c-7 -9 -8 -17 -2 -20 5 -3 12 0 14 6 3 8 6 6 6 -4 1 -20
16 -24 26 -8 7 11 -12 40 -25 40 -4 0 -13 -6 -19 -14z"/>
<path d="M3810 5865 c-16 -17 -19 -25 -9 -25 8 0 24 -3 37 -6 17 -5 22 -2 22
14 0 36 -24 45 -50 17z"/>
<path d="M4305 5849 c-10 -15 1 -23 20 -15 9 3 13 10 10 16 -8 13 -22 13 -30
-1z"/>
<path d="M3925 5840 c-3 -5 -1 -10 4 -10 6 0 11 5 11 10 0 6 -2 10 -4 10 -3 0
-8 -4 -11 -10z"/>
<path d="M4120 5670 c0 -5 5 -10 10 -10 6 0 10 5 10 10 0 6 -4 10 -10 10 -5 0
-10 -4 -10 -10z"/>
<path d="M6128 4966 c-10 -7 -18 -18 -18 -23 0 -5 -11 -20 -25 -33 -14 -13
-25 -29 -25 -35 0 -6 -11 -22 -25 -35 -13 -12 -22 -27 -19 -31 3 -5 0 -9 -5
-9 -6 0 -11 -19 -11 -43 0 -24 -4 -47 -10 -53 -5 -5 -13 -44 -16 -85 -6 -70
-5 -76 20 -106 21 -25 38 -33 88 -42 42 -7 66 -7 72 -1 20 20 -9 45 -58 52
-26 3 -54 12 -62 18 -18 16 -18 83 1 135 8 22 15 54 15 72 0 21 10 44 30 66
17 19 30 39 30 45 0 6 10 19 23 29 26 22 47 56 47 78 0 18 -29 19 -52 1z"/>
<path d="M4704 4579 c-7 -12 15 -31 31 -26 6 2 11 11 13 20 4 19 -32 24 -44 6z"/>
<path d="M6496 4344 c-16 -41 9 -60 39 -30 12 12 11 16 -9 30 -22 14 -25 14
-30 0z"/>
<path d="M6847 4322 c1 -3 -4 -14 -14 -24 -15 -17 -15 -18 1 -18 20 0 33 28
19 39 -5 5 -8 6 -6 3z"/>
<path d="M6940 4293 c0 -5 4 -14 9 -22 8 -12 12 -12 25 -2 23 19 20 31 -9 31
-14 0 -25 -3 -25 -7z"/>
<path d="M5965 4230 c4 -6 11 -8 16 -5 14 9 11 15 -7 15 -8 0 -12 -5 -9 -10z"/>
<path d="M6030 4200 c0 -5 5 -10 10 -10 6 0 10 5 10 10 0 6 -4 10 -10 10 -5 0
-10 -4 -10 -10z"/>
<path d="M6180 4200 c0 -5 5 -10 10 -10 6 0 10 5 10 10 0 6 -4 10 -10 10 -5 0
-10 -4 -10 -10z"/>
<path d="M5680 4170 c0 -5 5 -10 11 -10 5 0 7 5 4 10 -3 6 -8 10 -11 10 -2 0
-4 -4 -4 -10z"/>
<path d="M5742 4145 c-3 -37 13 -48 23 -16 6 19 -3 51 -14 51 -4 0 -8 -16 -9
-35z"/>
<path d="M7040 4164 c0 -17 22 -14 28 4 2 7 -3 12 -12 12 -9 0 -16 -7 -16 -16z"/>
<path d="M5907 4086 c-15 -23 -13 -36 5 -36 4 0 8 8 8 18 0 10 5 23 12 30 8 8
8 12 1 12 -6 0 -18 -11 -26 -24z"/>
<path d="M6590 4079 c0 -5 5 -7 10 -4 6 3 10 8 10 11 0 2 -4 4 -10 4 -5 0 -10
-5 -10 -11z"/>
<path d="M4291 4027 c-13 -17 3 -42 22 -34 8 3 20 0 27 -6 9 -9 11 -7 8 12 -4
28 -41 46 -57 28z"/>
<path d="M6295 4014 c-22 -8 -42 -20 -46 -26 -4 -6 -18 -8 -32 -4 -16 4 -29 1
-37 -9 -8 -9 -8 -15 -2 -15 6 0 13 6 15 13 4 8 6 6 6 -4 1 -20 -30 -49 -52
-49 -8 0 -18 -8 -22 -17 -5 -16 -52 -55 -104 -88 -9 -5 -32 -22 -52 -37 -20
-16 -40 -28 -44 -28 -3 0 -21 -11 -39 -25 -18 -14 -36 -25 -40 -25 -3 0 -25
-13 -48 -30 -22 -16 -51 -30 -63 -30 -30 0 -49 -22 -33 -38 14 -14 84 -16 93
-2 3 5 19 7 36 3 17 -3 41 0 55 7 21 12 28 11 51 -6 15 -11 32 -36 39 -55 7
-18 13 -29 13 -24 1 6 9 -3 19 -20 10 -16 31 -36 45 -44 15 -8 27 -18 27 -22
0 -4 21 -19 48 -34 26 -15 56 -35 67 -45 40 -34 241 -61 478 -63 178 -2 183
-1 238 24 32 15 71 30 89 34 65 14 232 201 247 276 7 39 27 54 43 34 19 -22
60 -20 60 4 0 11 -5 23 -11 26 -6 4 -8 14 -5 22 10 25 -14 43 -55 43 -36 0
-44 7 -40 33 1 4 -5 18 -14 30 -8 12 -15 16 -15 9 0 -23 -20 -12 -26 14 -9 36
-50 107 -73 128 -11 10 -49 23 -85 29 -36 6 -66 15 -66 19 0 11 -66 10 -88 -1
-9 -4 -35 -17 -57 -27 -22 -10 -42 -21 -45 -24 -3 -3 -18 -7 -35 -8 -16 -1
-49 -5 -71 -8 -39 -6 -86 7 -134 37 -57 35 -171 46 -235 23z m566 -54 c-13
-11 -28 -20 -35 -20 -6 0 3 9 19 20 38 25 47 25 16 0z m-581 0 c-13 -8 -12
-10 4 -10 11 0 17 -3 13 -6 -3 -4 -13 -4 -22 0 -18 6 -11 26 8 26 7 0 6 -4 -3
-10z m223 -14 c3 -8 0 -17 -7 -19 -10 -4 -12 1 -9 14 6 23 9 24 16 5z m484 -2
c-3 -3 -12 -4 -19 -1 -8 3 -5 6 6 6 11 1 17 -2 13 -5z m99 -2 c13 -9 26 -54
13 -46 -5 3 -9 11 -9 19 0 8 -8 19 -17 24 -10 6 -13 10 -8 11 6 0 15 -4 21 -8z
m-850 -52 c0 -9 -7 -16 -16 -16 -9 0 -16 7 -16 16 0 9 7 16 16 16 9 0 16 -7
16 -16z m427 3 c-7 -2 -21 -2 -30 0 -10 3 -4 5 12 5 17 0 24 -2 18 -5z m-473
-30 c0 -3 -5 -3 -12 -1 -15 5 -48 -22 -48 -39 0 -7 -5 -13 -11 -13 -12 0 -4
16 24 47 16 18 47 22 47 6z m972 -56 c7 -14 7 -17 -1 -13 -6 4 -11 0 -11 -9 0
-12 6 -15 19 -10 11 3 22 2 24 -3 3 -4 -6 -8 -21 -7 -20 0 -27 5 -28 20 -4 53
-4 51 -14 35 -7 -12 -9 -10 -7 7 1 17 4 20 15 11 7 -6 18 -20 24 -31z m-1077
-7 c-3 -5 -12 -10 -18 -10 -7 0 -6 4 3 10 19 12 23 12 15 0z m5 -25 c0 -11
-31 -11 -39 -1 -9 10 -6 12 14 8 14 -2 25 -6 25 -7z m-100 -40 c-7 -9 -15 -13
-19 -10 -3 3 1 10 9 15 21 14 24 12 10 -5z m1230 -5 c0 -5 -2 -10 -4 -10 -3 0
-8 5 -11 10 -3 6 -1 10 4 10 6 0 11 -4 11 -10z m-1267 -35 c-3 -9 -8 -14 -10
-11 -3 3 -2 9 2 15 9 16 15 13 8 -4z m1202 -15 c-3 -5 -12 -10 -18 -10 -7 0
-6 4 3 10 19 12 23 12 15 0z m-508 -14 c0 -8 -8 -11 -21 -8 -19 5 -19 6 0 13
10 4 19 8 20 8 0 1 1 -5 1 -13z m-267 0 c0 -3 -4 -8 -10 -11 -5 -3 -10 -1 -10
4 0 6 5 11 10 11 6 0 10 -2 10 -4z m-114 -43 c-7 -7 -26 7 -26 19 0 6 6 6 15
-2 9 -7 13 -15 11 -17z m71 0 c-9 -2 -15 -8 -12 -12 2 -5 -8 -6 -23 -3 l-27 6
25 7 c14 4 32 7 40 7 10 0 9 -2 -3 -5z m338 -3 c-3 -5 -12 -10 -18 -10 -7 0
-6 4 3 10 19 12 23 12 15 0z m432 -6 c-3 -3 -12 -4 -19 -1 -8 3 -5 6 6 6 11 1
17 -2 13 -5z m-1080 -11 c-4 -3 -2 -12 4 -20 7 -8 8 -13 1 -13 -5 0 -15 6 -21
14 -9 11 -9 15 1 19 19 8 22 8 15 0z m1123 -64 c0 -9 -8 -23 -17 -30 -15 -11
-16 -11 -5 1 6 8 12 21 12 30 0 13 -2 13 -11 0 -9 -12 -10 -12 -5 3 3 10 6 24
6 30 0 18 20 -16 20 -34z m-1091 -14 c7 3 8 0 5 -10 -5 -11 -2 -14 12 -9 15 6
17 4 7 -6 -14 -15 -37 -1 -54 34 -10 20 -9 20 5 2 8 -10 19 -15 25 -11z m97
-27 c0 -10 -1 -18 -2 -18 0 0 -8 8 -17 18 -15 16 -15 18 1 18 10 0 18 -8 18
-18z m-26 -17 c14 -28 -7 -39 -28 -15 -16 17 -16 17 1 5 19 -15 24 -2 5 17 -9
9 -9 12 0 12 6 0 16 -9 22 -19z m980 6 c0 -2 -10 -12 -21 -23 -22 -19 -22 -19
-8 4 12 19 29 30 29 19z m-955 -38 c-5 -16 -4 -19 5 -14 8 5 11 4 6 -3 -4 -6
-13 -9 -21 -6 -11 5 -12 10 -2 25 16 25 20 24 12 -2z m60 -29 c4 -6 -1 -7 -12
-4 -13 4 -11 0 6 -14 14 -11 32 -18 40 -15 13 4 14 3 2 -5 -10 -7 -23 -4 -47
11 -22 15 -29 24 -21 29 16 10 25 10 32 -2z m770 -20 c3 -6 -1 -7 -9 -4 -18 7
-21 14 -7 14 6 0 13 -4 16 -10z m45 6 c0 -3 -4 -8 -10 -11 -5 -3 -10 -1 -10 4
0 6 5 11 10 11 6 0 10 -2 10 -4z m-80 -29 c-27 -15 -36 -14 -25 2 3 6 16 11
28 11 21 0 21 -1 -3 -13z m-665 -7 c3 -5 1 -10 -4 -10 -6 0 -11 5 -11 10 0 6
2 10 4 10 3 0 8 -4 11 -10z m210 -31 c-18 -5 -34 -4 -40 2 -7 7 -4 8 9 3 12
-5 17 -4 13 3 -4 6 4 8 21 5 l27 -5 -30 -8z m392 5 c-3 -3 -12 -4 -19 -1 -8 3
-5 6 6 6 11 1 17 -2 13 -5z m-250 -10 c-3 -3 -12 -4 -19 -1 -8 3 -5 6 6 6 11
1 17 -2 13 -5z"/>
<path d="M5455 4010 c-3 -5 1 -10 10 -10 9 0 13 5 10 10 -3 6 -8 10 -10 10 -2
0 -7 -4 -10 -10z"/>
<path d="M4206 3941 c-8 -13 -3 -101 5 -101 4 0 17 8 29 18 19 15 20 22 13 52
-9 34 -35 51 -47 31z"/>
<path d="M7290 3940 c0 -5 5 -10 10 -10 6 0 10 5 10 10 0 6 -4 10 -10 10 -5 0
-10 -4 -10 -10z"/>
<path d="M7240 3916 c0 -14 5 -26 10 -26 6 0 10 9 10 19 0 11 -4 23 -10 26 -6
4 -10 -5 -10 -19z"/>
<path d="M5250 3900 c0 -5 5 -10 11 -10 5 0 7 5 4 10 -3 6 -8 10 -11 10 -2 0
-4 -4 -4 -10z"/>
<path d="M7520 3880 c0 -11 7 -20 15 -20 8 0 15 9 15 20 0 11 -7 20 -15 20 -8
0 -15 -9 -15 -20z"/>
<path d="M4380 3864 c0 -8 5 -12 10 -9 6 4 8 11 5 16 -9 14 -15 11 -15 -7z"/>
<path d="M4125 3836 c11 -8 16 -19 12 -30 -9 -23 10 -11 24 16 7 13 7 18 1 14
-6 -3 -13 -2 -17 4 -3 5 -14 10 -23 10 -14 0 -13 -2 3 -14z"/>
<path d="M4250 3825 c-10 -13 -9 -15 9 -15 12 0 21 6 21 15 0 8 -4 15 -9 15
-5 0 -14 -7 -21 -15z"/>
<path d="M5637 3833 c-12 -11 -8 -23 8 -23 8 0 15 7 15 15 0 16 -12 20 -23 8z"/>
<path d="M4185 3810 c-3 -5 1 -10 9 -10 8 0 18 5 21 10 3 6 -1 10 -9 10 -8 0
-18 -4 -21 -10z"/>
<path d="M5365 3809 c-9 -14 -2 -20 14 -10 8 6 9 11 3 15 -6 3 -14 1 -17 -5z"/>
<path d="M5548 3795 c13 -9 26 -14 29 -11 8 8 3 12 -27 21 l-25 7 23 -17z"/>
<path d="M7335 3799 c-9 -13 -8 -13 34 -28 40 -13 41 -13 30 17 -9 23 -52 31
-64 11z"/>
<path d="M7350 3745 c0 -5 5 -17 10 -25 5 -8 10 -10 10 -5 0 6 -5 17 -10 25
-5 8 -10 11 -10 5z"/>
<path d="M7717 3713 c-3 -5 -2 -15 2 -22 7 -10 10 -10 16 -1 4 6 3 16 -3 22
-5 5 -12 6 -15 1z"/>
<path d="M5660 3685 c-11 -13 -10 -14 4 -9 9 3 16 10 16 15 0 13 -6 11 -20 -6z"/>
<path d="M4994 3445 c-9 -23 12 -43 28 -27 7 7 21 12 32 12 27 0 9 17 -26 25
-21 5 -29 3 -34 -10z"/>
<path d="M4850 3446 c0 -11 33 -36 41 -31 19 12 9 35 -16 35 -14 0 -25 -2 -25
-4z"/>
<path d="M4930 3320 c0 -5 4 -10 9 -10 6 0 13 5 16 10 3 6 -1 10 -9 10 -9 0
-16 -4 -16 -10z"/>
<path d="M5190 3310 c0 -13 28 -25 38 -16 3 4 0 11 -8 16 -20 13 -30 12 -30 0z"/>
<path d="M4850 3296 c0 -8 7 -17 16 -20 8 -3 12 -2 9 4 -4 6 4 14 17 19 21 9
21 10 -9 10 -22 1 -33 -4 -33 -13z"/>
<path d="M4744 3266 c-10 -26 1 -51 24 -54 12 -2 22 -7 22 -12 0 -9 47 -60 54
-60 7 0 0 75 -8 88 -4 8 -14 11 -21 8 -8 -3 -21 6 -29 20 -19 27 -34 31 -42
10z"/>
<path d="M5116 3224 c-9 -24 -2 -26 12 -4 7 11 8 20 3 20 -5 0 -12 -7 -15 -16z"/>
<path d="M5744 3018 c7 -37 11 -42 25 -33 6 3 11 19 11 36 0 23 -4 29 -21 29
-19 0 -21 -4 -15 -32z"/>
<path d="M5313 3025 c-13 -6 -20 -15 -16 -18 10 -11 41 -8 49 4 11 18 -10 27
-33 14z"/>
<path d="M5910 3030 c0 -3 4 -11 9 -19 7 -11 11 -10 20 7 10 18 8 21 -9 19
-11 -1 -20 -4 -20 -7z"/>
<path d="M5185 2970 c-3 -5 -1 -10 4 -10 6 0 11 5 11 10 0 6 -2 10 -4 10 -3 0
-8 -4 -11 -10z"/>
<path d="M5585 2970 c-3 -5 -1 -10 4 -10 6 0 11 5 11 10 0 6 -2 10 -4 10 -3 0
-8 -4 -11 -10z"/>
<path d="M5624 2962 c-16 -10 -24 -52 -11 -52 23 1 47 27 41 44 -7 18 -13 19
-30 8z"/>
<path d="M5708 2943 c-8 -17 -23 -29 -38 -31 -28 -4 -65 -38 -51 -47 18 -11
120 71 121 98 0 17 -20 5 -32 -20z"/>
<path d="M5100 2939 c0 -5 5 -7 10 -4 6 3 10 8 10 11 0 2 -4 4 -10 4 -5 0 -10
-5 -10 -11z"/>
<path d="M5450 2940 c0 -5 5 -10 10 -10 6 0 10 5 10 10 0 6 -4 10 -10 10 -5 0
-10 -4 -10 -10z"/>
<path d="M5556 2901 c-4 -7 -5 -15 -2 -18 9 -9 19 4 14 18 -4 11 -6 11 -12 0z"/>
<path d="M6856 2901 c-4 -7 -5 -15 -2 -18 9 -9 19 4 14 18 -4 11 -6 11 -12 0z"/>
<path d="M5460 2880 c0 -5 5 -10 10 -10 6 0 10 5 10 10 0 6 -4 10 -10 10 -5 0
-10 -4 -10 -10z"/>
<path d="M6896 2874 c-4 -10 -2 -22 3 -27 7 -7 13 -5 17 7 4 10 2 22 -3 27 -7
7 -13 5 -17 -7z"/>
<path d="M5733 2864 c-8 -22 17 -36 34 -18 8 8 11 18 8 24 -10 15 -35 12 -42
-6z"/>
<path d="M6957 2861 c-2 -10 -1 -24 3 -31 5 -7 9 0 12 19 5 34 -7 43 -15 12z"/>
<path d="M6740 2840 c0 -23 10 -26 28 -8 18 18 15 28 -8 28 -13 0 -20 -7 -20
-20z"/>
<path d="M6026 2831 c-4 -5 -2 -12 3 -15 5 -4 12 -2 15 3 4 5 2 12 -3 15 -5 4
-12 2 -15 -3z"/>
<path d="M6865 2830 c-3 -5 -1 -10 4 -10 6 0 11 5 11 10 0 6 -2 10 -4 10 -3 0
-8 -4 -11 -10z"/>
<path d="M5707 2823 c-4 -3 -7 -11 -7 -17 0 -6 5 -5 12 2 6 6 9 14 7 17 -3 3
-9 2 -12 -2z"/>
<path d="M7200 2803 c0 -5 11 -9 25 -9 14 -1 22 2 19 7 -6 11 -44 12 -44 2z"/>
<path d="M6186 2791 c-4 -7 -5 -15 -2 -18 9 -9 19 4 14 18 -4 11 -6 11 -12 0z"/>
<path d="M6866 2791 c-4 -7 -5 -15 -2 -18 9 -9 19 4 14 18 -4 11 -6 11 -12 0z"/>
<path d="M5495 2780 c4 -6 11 -8 16 -5 14 9 11 15 -7 15 -8 0 -12 -5 -9 -10z"/>
<path d="M5821 2772 c-8 -15 -7 -21 3 -25 17 -7 27 15 16 33 -6 10 -11 8 -19
-8z"/>
<path d="M6217 2784 c-9 -9 4 -35 14 -28 5 3 9 12 9 20 0 14 -12 19 -23 8z"/>
<path d="M5720 2750 c0 -5 5 -10 10 -10 6 0 10 5 10 10 0 6 -4 10 -10 10 -5 0
-10 -4 -10 -10z"/>
<path d="M6700 2740 c0 -5 5 -10 10 -10 6 0 10 5 10 10 0 6 -4 10 -10 10 -5 0
-10 -4 -10 -10z"/>
<path d="M5560 2711 c0 -6 5 -13 10 -16 6 -3 10 1 10 9 0 9 -4 16 -10 16 -5 0
-10 -4 -10 -9z"/>
<path d="M5885 2709 c-4 -6 -17 -14 -29 -19 -20 -8 -20 -9 4 -9 24 0 60 19 60
33 0 10 -28 7 -35 -5z"/>
<path d="M6733 2696 c-21 -22 -30 -46 -18 -46 12 0 55 45 55 57 0 19 -12 16
-37 -11z"/>
<path d="M5745 2691 c-3 -5 -1 -12 5 -16 5 -3 10 1 10 9 0 18 -6 21 -15 7z"/>
<path d="M6680 2690 c-13 -8 -12 -10 3 -10 9 0 17 5 17 10 0 12 -1 12 -20 0z"/>
<path d="M5597 2676 c-3 -8 -2 -18 3 -21 13 -8 24 15 12 27 -6 6 -11 4 -15 -6z"/>
<path d="M6770 2684 c0 -15 22 -44 31 -39 11 7 -7 45 -21 45 -6 0 -10 -3 -10
-6z"/>
<path d="M6915 2650 c-3 -5 -1 -10 4 -10 6 0 11 5 11 10 0 6 -2 10 -4 10 -3 0
-8 -4 -11 -10z"/>
<path d="M6675 2640 c3 -5 8 -10 11 -10 2 0 4 5 4 10 0 6 -5 10 -11 10 -5 0
-7 -4 -4 -10z"/>
<path d="M7090 2640 c0 -5 7 -10 15 -10 8 0 15 5 15 10 0 6 -7 10 -15 10 -8 0
-15 -4 -15 -10z"/>
<path d="M5985 2630 c-3 -5 -1 -10 4 -10 6 0 11 5 11 10 0 6 -2 10 -4 10 -3 0
-8 -4 -11 -10z"/>
<path d="M7130 2629 c0 -5 5 -7 10 -4 6 3 10 8 10 11 0 2 -4 4 -10 4 -5 0 -10
-5 -10 -11z"/>
<path d="M7170 2620 c0 -5 5 -10 10 -10 6 0 10 5 10 10 0 6 -4 10 -10 10 -5 0
-10 -4 -10 -10z"/>
<path d="M7098 2603 c7 -3 16 -2 19 1 4 3 -2 6 -13 5 -11 0 -14 -3 -6 -6z"/>
<path d="M6054 2575 c-10 -8 -14 -15 -8 -15 6 0 17 7 24 15 16 19 9 19 -16 0z"/>
<path d="M5800 2566 c0 -8 4 -17 9 -21 6 -3 9 4 8 15 -1 23 -17 28 -17 6z"/>
<path d="M5607 2530 c-18 -22 -21 -31 -9 -28 16 3 40 -15 36 -27 -8 -20 12
-27 26 -10 11 14 15 12 31 -12 11 -15 19 -22 19 -15 0 21 -33 72 -46 72 -6 0
-14 9 -17 20 -7 25 -18 25 -40 0z"/>
<path d="M7047 2533 c-2 -5 -7 -25 -11 -45 -5 -28 -3 -38 6 -38 30 1 41 17 34
54 -6 34 -19 46 -29 29z"/>
<path d="M6625 2500 c-9 -15 -1 -23 21 -18 15 3 16 4 1 16 -11 9 -17 10 -22 2z"/>
<path d="M5947 2486 c-19 -15 -22 -26 -6 -26 15 0 41 28 31 33 -4 3 -15 0 -25
-7z"/>
<path d="M6420 2480 c0 -5 7 -10 15 -10 8 0 15 5 15 10 0 6 -7 10 -15 10 -8 0
-15 -4 -15 -10z"/>
<path d="M5322 2468 c-8 -8 -9 -15 -1 -25 16 -19 25 -16 43 12 16 24 16 25 -7
25 -13 0 -28 -5 -35 -12z"/>
<path d="M5437 2473 c-4 -3 -7 -11 -7 -17 0 -6 5 -5 12 2 6 6 9 14 7 17 -3 3
-9 2 -12 -2z"/>
<path d="M6700 2459 c0 -4 7 -9 15 -13 9 -3 15 0 15 8 0 7 -7 13 -15 13 -8 0
-15 -4 -15 -8z"/>
<path d="M6745 2440 c4 -6 11 -8 16 -5 14 9 11 15 -7 15 -8 0 -12 -5 -9 -10z"/>
<path d="M6933 2438 c2 -7 12 -13 22 -13 10 0 20 6 23 13 2 7 -6 12 -23 12
-17 0 -25 -5 -22 -12z"/>
<path d="M5870 2430 c0 -5 5 -10 10 -10 6 0 10 5 10 10 0 6 -4 10 -10 10 -5 0
-10 -4 -10 -10z"/>
<path d="M6518 2416 c-9 -13 -15 -26 -12 -29 6 -5 54 36 54 47 0 15 -26 3 -42
-18z"/>
<path d="M6345 2419 c-12 -19 5 -23 22 -6 16 16 16 17 1 17 -9 0 -20 -5 -23
-11z"/>
<path d="M6395 2404 c-19 -15 -19 -15 10 -12 17 2 29 7 28 13 -3 16 -17 15
-38 -1z"/>
<path d="M6574 2405 c-9 -22 1 -29 15 -11 8 10 9 16 1 21 -5 3 -13 -1 -16 -10z"/>
<path d="M5660 2400 c-8 -5 -12 -12 -9 -15 4 -3 12 1 19 10 14 17 11 19 -10 5z"/>
<path d="M6520 2325 c-14 -16 -10 -18 14 -9 9 3 16 10 16 15 0 14 -16 11 -30
-6z"/>
<path d="M5840 2310 c0 -5 5 -10 10 -10 6 0 10 5 10 10 0 6 -4 10 -10 10 -5 0
-10 -4 -10 -10z"/>
<path d="M6230 2305 c10 -12 10 -15 0 -15 -8 0 -10 -3 -7 -6 8 -8 37 14 37 27
0 5 -10 9 -21 9 -18 0 -19 -2 -9 -15z"/>
<path d="M6452 2288 c-6 -17 -11 -33 -9 -34 1 -2 13 5 26 15 16 12 22 24 18
35 -10 25 -21 19 -35 -16z"/>
<path d="M6180 2260 c0 -5 4 -10 9 -10 6 0 13 5 16 10 3 6 -1 10 -9 10 -9 0
-16 -4 -16 -10z"/>
<path d="M6305 2240 c-7 -12 2 -30 16 -30 12 0 12 27 0 35 -5 3 -12 1 -16 -5z"/>
<path d="M6431 2224 c0 -11 3 -14 6 -6 3 7 2 16 -1 19 -3 4 -6 -2 -5 -13z"/>
<path d="M6506 2165 c-3 -8 -1 -15 4 -15 6 0 10 7 10 15 0 8 -2 15 -4 15 -2 0
-6 -7 -10 -15z"/>
<path d="M6621 2125 c-29 -29 -22 -41 24 -43 28 -1 35 2 35 17 0 10 -8 25 -17
33 -16 14 -20 13 -42 -7z"/>
<path d="M6067 2133 c-13 -12 -7 -23 13 -23 11 0 20 7 20 15 0 15 -21 21 -33
8z"/>
<path d="M6500 2086 c0 -2 7 -6 15 -10 8 -3 15 -1 15 4 0 6 -7 10 -15 10 -8 0
-15 -2 -15 -4z"/>
<path d="M6475 2069 c-4 -6 -5 -12 -2 -15 2 -3 7 2 10 11 7 17 1 20 -8 4z"/>
<path d="M6360 2060 c0 -5 5 -10 10 -10 6 0 10 5 10 10 0 6 -4 10 -10 10 -5 0
-10 -4 -10 -10z"/>
<path d="M10898 10083 c12 -2 32 -2 45 0 12 2 2 4 -23 4 -25 0 -35 -2 -22 -4z"/>
<path d="M10518 10003 c23 -2 61 -2 85 0 23 2 4 4 -43 4 -47 0 -66 -2 -42 -4z"/>
<path d="M10884 9978 c3 -13 6 -30 6 -39 0 -9 7 -16 15 -16 11 0 15 11 15 39
0 32 -3 38 -21 38 -17 0 -20 -4 -15 -22z"/>
<path d="M10118 9923 c23 -2 61 -2 85 0 23 2 4 4 -43 4 -47 0 -66 -2 -42 -4z"/>
<path d="M10560 9890 l0 -30 80 0 80 0 0 30 0 30 -80 0 -80 0 0 -30z"/>
<path d="M10240 9850 l0 -30 120 0 120 0 0 30 0 30 -120 0 -120 0 0 -30z"/>
<path d="M9390 9841 c0 -6 5 -13 10 -16 6 -3 10 -2 10 4 0 5 8 12 18 14 10 3
6 5 -10 6 -16 0 -28 -3 -28 -8z"/>
<path d="M9698 9843 c12 -2 32 -2 45 0 12 2 2 4 -23 4 -25 0 -35 -2 -22 -4z"/>
<path d="M1958 8403 c23 -2 61 -2 85 0 23 2 4 4 -43 4 -47 0 -66 -2 -42 -4z"/>
<path d="M1498 8323 c34 -2 90 -2 125 0 34 2 6 3 -63 3 -69 0 -97 -1 -62 -3z"/>
<path d="M1078 8243 c23 -2 61 -2 85 0 23 2 4 4 -43 4 -47 0 -66 -2 -42 -4z"/>
<path d="M1280 8180 c0 -18 -7 -20 -80 -20 l-80 0 0 -30 0 -30 160 0 160 0 0
50 0 50 -80 0 c-73 0 -80 -2 -80 -20z"/>
<path d="M678 8163 c23 -2 61 -2 85 0 23 2 4 4 -43 4 -47 0 -66 -2 -42 -4z"/>
<path d="M258 8083 c12 -2 32 -2 45 0 12 2 2 4 -23 4 -25 0 -35 -2 -22 -4z"/>
<path d="M0 7930 l0 -30 120 0 c73 0 120 4 120 10 0 6 -18 10 -40 10 -33 0
-40 3 -40 20 0 18 -7 20 -80 20 l-80 0 0 -30z"/>
</g>
</svg>
