<svg viewBox="0 0 740 60" version="1.1" xmlns="http://www.w3.org/2000/svg" xmlns:xlink="http://www.w3.org/1999/xlink" xml:space="preserve" xmlns:serif="http://www.serif.com/" style="fill-rule:evenodd;clip-rule:evenodd;stroke-linecap:round;stroke-linejoin:round;stroke-miterlimit:1.5;">
    <g transform="matrix(1,0,0,1,0,-272)">
        <g transform="matrix(0.578125,0,0,0.100174,0,251.861)">
            <rect x="0" y="201.043" width="1280" height="598.957" style="fill:rgb(199, 63, 110);"/>
            <clipPath id="_clip1">
                <rect x="0" y="201.043" width="1280" height="598.957"/>
            </clipPath>
            <g clip-path="url(#_clip1)">
                <g transform="matrix(0.990754,0,0,5.71784,5.91726,-1350.01)">
                    <g transform="matrix(0.479575,0,0,0.479575,-86.4241,218.766)">
                        <circle cx="180.21" cy="111.002" r="12.454" />
                    </g>
                    <g transform="matrix(1.02995,0,0,1.02995,-145.13,89.5236)">
                        <path d="M160.328,171.372L166.127,182.97L154.529,182.97L160.328,171.372Z" />
                    </g>
                    <g transform="matrix(0.479575,0,0,0.479575,-46.4241,218.766)">
                        <circle cx="180.21" cy="111.002" r="12.454" />
                    </g>
                    <g transform="matrix(1.02995,0,0,1.02995,-105.13,89.5236)">
                        <path d="M160.328,171.372L166.127,182.97L154.529,182.97L160.328,171.372Z" />
                    </g>
                    <g transform="matrix(0.479575,0,0,0.479575,-6.42407,218.766)">
                        <circle cx="180.21" cy="111.002" r="12.454" />
                    </g>
                    <g transform="matrix(1.02995,0,0,1.02995,-65.1296,89.5236)">
                        <path d="M160.328,171.372L166.127,182.97L154.529,182.97L160.328,171.372Z" />
                    </g>
                    <g transform="matrix(0.479575,0,0,0.479575,33.5759,218.766)">
                        <circle cx="180.21" cy="111.002" r="12.454" />
                    </g>
                    <g transform="matrix(1.02995,0,0,1.02995,-25.1296,89.5236)">
                        <path d="M160.328,171.372L166.127,182.97L154.529,182.97L160.328,171.372Z" />
                    </g>
                    <g transform="matrix(0.479575,0,0,0.479575,73.5759,218.766)">
                        <circle cx="180.21" cy="111.002" r="12.454" />
                    </g>
                    <g transform="matrix(1.02995,0,0,1.02995,14.8704,89.5236)">
                        <path d="M160.328,171.372L166.127,182.97L154.529,182.97L160.328,171.372Z" />
                    </g>
                    <g transform="matrix(0.479575,0,0,0.479575,113.576,218.766)">
                        <circle cx="180.21" cy="111.002" r="12.454" />
                    </g>
                    <g transform="matrix(1.02995,0,0,1.02995,54.8704,89.5236)">
                        <path d="M160.328,171.372L166.127,182.97L154.529,182.97L160.328,171.372Z" />
                    </g>
                    <g transform="matrix(0.479575,0,0,0.479575,153.576,218.766)">
                        <circle cx="180.21" cy="111.002" r="12.454" />
                    </g>
                    <g transform="matrix(1.02995,0,0,1.02995,94.8704,89.5236)">
                        <path d="M160.328,171.372L166.127,182.97L154.529,182.97L160.328,171.372Z" />
                    </g>
                    <g transform="matrix(0.479575,0,0,0.479575,193.576,218.766)">
                        <circle cx="180.21" cy="111.002" r="12.454" />
                    </g>
                    <g transform="matrix(1.02995,0,0,1.02995,134.87,89.5236)">
                        <path d="M160.328,171.372L166.127,182.97L154.529,182.97L160.328,171.372Z" />
                    </g>
                    <g transform="matrix(0.479575,0,0,0.479575,233.576,218.766)">
                        <circle cx="180.21" cy="111.002" r="12.454" />
                    </g>
                    <g transform="matrix(1.02995,0,0,1.02995,174.87,89.5236)">
                        <path d="M160.328,171.372L166.127,182.97L154.529,182.97L160.328,171.372Z" />
                    </g>
                    <g transform="matrix(0.479575,0,0,0.479575,273.576,218.766)">
                        <circle cx="180.21" cy="111.002" r="12.454" />
                    </g>
                    <g transform="matrix(1.02995,0,0,1.02995,214.87,89.5236)">
                        <path d="M160.328,171.372L166.127,182.97L154.529,182.97L160.328,171.372Z" />
                    </g>
                    <g transform="matrix(0.479575,0,0,0.479575,313.576,218.766)">
                        <circle cx="180.21" cy="111.002" r="12.454" />
                    </g>
                    <g transform="matrix(1.02995,0,0,1.02995,254.87,89.5236)">
                        <path d="M160.328,171.372L166.127,182.97L154.529,182.97L160.328,171.372Z" />
                    </g>
                    <g transform="matrix(0.479575,0,0,0.479575,353.576,218.766)">
                        <circle cx="180.21" cy="111.002" r="12.454" />
                    </g>
                    <g transform="matrix(1.02995,0,0,1.02995,294.87,89.5236)">
                        <path d="M160.328,171.372L166.127,182.97L154.529,182.97L160.328,171.372Z" />
                    </g>
                    <g transform="matrix(0.479575,0,0,0.479575,393.576,218.766)">
                        <circle cx="180.21" cy="111.002" r="12.454" />
                    </g>
                    <g transform="matrix(1.02995,0,0,1.02995,334.87,89.5236)">
                        <path d="M160.328,171.372L166.127,182.97L154.529,182.97L160.328,171.372Z" />
                    </g>
                    <g transform="matrix(0.479575,0,0,0.479575,433.576,218.766)">
                        <circle cx="180.21" cy="111.002" r="12.454" />
                    </g>
                    <g transform="matrix(1.02995,0,0,1.02995,374.87,89.5236)">
                        <path d="M160.328,171.372L166.127,182.97L154.529,182.97L160.328,171.372Z" />
                    </g>
                    <g transform="matrix(0.479575,0,0,0.479575,473.576,218.766)">
                        <circle cx="180.21" cy="111.002" r="12.454" />
                    </g>
                    <g transform="matrix(1.02995,0,0,1.02995,414.87,89.5236)">
                        <path d="M160.328,171.372L166.127,182.97L154.529,182.97L160.328,171.372Z" />
                    </g>
                    <g transform="matrix(0.479575,0,0,0.479575,513.576,218.766)">
                        <circle cx="180.21" cy="111.002" r="12.454" />
                    </g>
                    <g transform="matrix(1.02995,0,0,1.02995,454.87,89.5236)">
                        <path d="M160.328,171.372L166.127,182.97L154.529,182.97L160.328,171.372Z" />
                    </g>
                    <g transform="matrix(0.479575,0,0,0.479575,553.576,218.766)">
                        <circle cx="180.21" cy="111.002" r="12.454" />
                    </g>
                    <g transform="matrix(1.02995,0,0,1.02995,494.87,89.5236)">
                        <path d="M160.328,171.372L166.127,182.97L154.529,182.97L160.328,171.372Z" />
                    </g>
                    <g transform="matrix(0.479575,0,0,0.479575,593.576,218.766)">
                        <circle cx="180.21" cy="111.002" r="12.454" />
                    </g>
                    <g transform="matrix(1.02995,0,0,1.02995,534.87,89.5236)">
                        <path d="M160.328,171.372L166.127,182.97L154.529,182.97L160.328,171.372Z" />
                    </g>
                    <g transform="matrix(0.479575,0,0,0.479575,633.576,218.766)">
                        <circle cx="180.21" cy="111.002" r="12.454" />
                    </g>
                    <g transform="matrix(1.02995,0,0,1.02995,574.87,89.5236)">
                        <path d="M160.328,171.372L166.127,182.97L154.529,182.97L160.328,171.372Z" />
                    </g>
                    <g transform="matrix(0.479575,0,0,0.479575,673.576,218.766)">
                        <circle cx="180.21" cy="111.002" r="12.454" />
                    </g>
                    <g transform="matrix(1.02995,0,0,1.02995,614.87,89.5236)">
                        <path d="M160.328,171.372L166.127,182.97L154.529,182.97L160.328,171.372Z" />
                    </g>
                    <g transform="matrix(0.479575,0,0,0.479575,713.576,218.766)">
                        <circle cx="180.21" cy="111.002" r="12.454" />
                    </g>
                    <g transform="matrix(1.02995,0,0,1.02995,654.87,89.5236)">
                        <path d="M160.328,171.372L166.127,182.97L154.529,182.97L160.328,171.372Z" />
                    </g>
                    <g transform="matrix(0.479575,0,0,0.479575,753.576,218.766)">
                        <circle cx="180.21" cy="111.002" r="12.454" />
                    </g>
                    <g transform="matrix(1.02995,0,0,1.02995,694.87,89.5236)">
                        <path d="M160.328,171.372L166.127,182.97L154.529,182.97L160.328,171.372Z" />
                    </g>
                    <g transform="matrix(0.479575,0,0,0.479575,793.576,218.766)">
                        <circle cx="180.21" cy="111.002" r="12.454" />
                    </g>
                    <g transform="matrix(1.02995,0,0,1.02995,734.87,89.5236)">
                        <path d="M160.328,171.372L166.127,182.97L154.529,182.97L160.328,171.372Z" />
                    </g>
                    <g transform="matrix(0.479575,0,0,0.479575,833.576,218.766)">
                        <circle cx="180.21" cy="111.002" r="12.454" />
                    </g>
                    <g transform="matrix(1.02995,0,0,1.02995,774.87,89.5236)">
                        <path d="M160.328,171.372L166.127,182.97L154.529,182.97L160.328,171.372Z" />
                    </g>
                    <g transform="matrix(0.479575,0,0,0.479575,873.576,218.766)">
                        <circle cx="180.21" cy="111.002" r="12.454" />
                    </g>
                    <g transform="matrix(1.02995,0,0,1.02995,814.87,89.5236)">
                        <path d="M160.328,171.372L166.127,182.97L154.529,182.97L160.328,171.372Z" />
                    </g>
                    <g transform="matrix(0.479575,0,0,0.479575,913.576,218.766)">
                        <circle cx="180.21" cy="111.002" r="12.454" />
                    </g>
                    <g transform="matrix(1.02995,0,0,1.02995,854.87,89.5236)">
                        <path d="M160.328,171.372L166.127,182.97L154.529,182.97L160.328,171.372Z" />
                    </g>
                    <g transform="matrix(0.479575,0,0,0.479575,953.576,218.766)">
                        <circle cx="180.21" cy="111.002" r="12.454" />
                    </g>
                    <g transform="matrix(1.02995,0,0,1.02995,894.87,89.5236)">
                        <path d="M160.328,171.372L166.127,182.97L154.529,182.97L160.328,171.372Z" />
                    </g>
                    <g transform="matrix(0.479575,0,0,0.479575,993.576,218.766)">
                        <circle cx="180.21" cy="111.002" r="12.454" />
                    </g>
                    <g transform="matrix(1.02995,0,0,1.02995,934.87,89.5236)">
                        <path d="M160.328,171.372L166.127,182.97L154.529,182.97L160.328,171.372Z" />
                    </g>
                    <g transform="matrix(0.479575,0,0,0.479575,1033.58,218.766)">
                        <circle cx="180.21" cy="111.002" r="12.454" />
                    </g>
                    <g transform="matrix(1.02995,0,0,1.02995,974.87,89.5236)">
                        <path d="M160.328,171.372L166.127,182.97L154.529,182.97L160.328,171.372Z" />
                    </g>
                    <g transform="matrix(0.479575,0,0,0.479575,1073.58,218.766)">
                        <circle cx="180.21" cy="111.002" r="12.454" />
                    </g>
                    <g transform="matrix(1.02995,0,0,1.02995,1014.87,89.5236)">
                        <path d="M160.328,171.372L166.127,182.97L154.529,182.97L160.328,171.372Z" />
                    </g>
                    <g transform="matrix(0.479575,0,0,0.479575,1113.58,218.766)">
                        <circle cx="180.21" cy="111.002" r="12.454" />
                    </g>
                    <g transform="matrix(1.02995,0,0,1.02995,1054.87,89.5236)">
                        <path d="M160.328,171.372L166.127,182.97L154.529,182.97L160.328,171.372Z" />
                    </g>
                    <g transform="matrix(0.479575,0,0,0.479575,1153.58,218.766)">
                        <circle cx="180.21" cy="111.002" r="12.454" />
                    </g>
                    <g transform="matrix(1.02995,0,0,1.02995,1094.87,89.5236)">
                        <path d="M160.328,171.372L166.127,182.97L154.529,182.97L160.328,171.372Z" />
                    </g>
                    <g transform="matrix(0.479575,0,0,0.479575,1193.58,218.766)">
                        <circle cx="180.21" cy="111.002" r="12.454" />
                    </g>
                    <g transform="matrix(1.02995,0,0,1.02995,-165.13,109.524)">
                        <path d="M160.328,171.372L166.127,182.97L154.529,182.97L160.328,171.372Z" />
                    </g>
                    <g transform="matrix(0.479575,0,0,0.479575,-66.4241,238.766)">
                        <circle cx="180.21" cy="111.002" r="12.454" />
                    </g>
                    <g transform="matrix(1.02995,0,0,1.02995,-125.13,109.524)">
                        <path d="M160.328,171.372L166.127,182.97L154.529,182.97L160.328,171.372Z" />
                    </g>
                    <g transform="matrix(0.479575,0,0,0.479575,-26.4241,238.766)">
                        <circle cx="180.21" cy="111.002" r="12.454" />
                    </g>
                    <g transform="matrix(1.02995,0,0,1.02995,-85.1296,109.524)">
                        <path d="M160.328,171.372L166.127,182.97L154.529,182.97L160.328,171.372Z" />
                    </g>
                    <g transform="matrix(0.479575,0,0,0.479575,13.5759,238.766)">
                        <circle cx="180.21" cy="111.002" r="12.454" />
                    </g>
                    <g transform="matrix(1.02995,0,0,1.02995,-45.1296,109.524)">
                        <path d="M160.328,171.372L166.127,182.97L154.529,182.97L160.328,171.372Z" />
                    </g>
                    <g transform="matrix(0.479575,0,0,0.479575,53.5759,238.766)">
                        <circle cx="180.21" cy="111.002" r="12.454" />
                    </g>
                    <g transform="matrix(1.02995,0,0,1.02995,-5.12956,109.524)">
                        <path d="M160.328,171.372L166.127,182.97L154.529,182.97L160.328,171.372Z" />
                    </g>
                    <g transform="matrix(0.479575,0,0,0.479575,93.5759,238.766)">
                        <circle cx="180.21" cy="111.002" r="12.454" />
                    </g>
                    <g transform="matrix(1.02995,0,0,1.02995,34.8704,109.524)">
                        <path d="M160.328,171.372L166.127,182.97L154.529,182.97L160.328,171.372Z" />
                    </g>
                    <g transform="matrix(0.479575,0,0,0.479575,133.576,238.766)">
                        <circle cx="180.21" cy="111.002" r="12.454" />
                    </g>
                    <g transform="matrix(1.02995,0,0,1.02995,74.8704,109.524)">
                        <path d="M160.328,171.372L166.127,182.97L154.529,182.97L160.328,171.372Z" />
                    </g>
                    <g transform="matrix(0.479575,0,0,0.479575,173.576,238.766)">
                        <circle cx="180.21" cy="111.002" r="12.454" />
                    </g>
                    <g transform="matrix(1.02995,0,0,1.02995,114.87,109.524)">
                        <path d="M160.328,171.372L166.127,182.97L154.529,182.97L160.328,171.372Z" />
                    </g>
                    <g transform="matrix(0.479575,0,0,0.479575,213.576,238.766)">
                        <circle cx="180.21" cy="111.002" r="12.454" />
                    </g>
                    <g transform="matrix(1.02995,0,0,1.02995,154.87,109.524)">
                        <path d="M160.328,171.372L166.127,182.97L154.529,182.97L160.328,171.372Z" />
                    </g>
                    <g transform="matrix(0.479575,0,0,0.479575,253.576,238.766)">
                        <circle cx="180.21" cy="111.002" r="12.454" />
                    </g>
                    <g transform="matrix(1.02995,0,0,1.02995,194.87,109.524)">
                        <path d="M160.328,171.372L166.127,182.97L154.529,182.97L160.328,171.372Z" />
                    </g>
                    <g transform="matrix(0.479575,0,0,0.479575,293.576,238.766)">
                        <circle cx="180.21" cy="111.002" r="12.454" />
                    </g>
                    <g transform="matrix(1.02995,0,0,1.02995,234.87,109.524)">
                        <path d="M160.328,171.372L166.127,182.97L154.529,182.97L160.328,171.372Z" />
                    </g>
                    <g transform="matrix(0.479575,0,0,0.479575,333.576,238.766)">
                        <circle cx="180.21" cy="111.002" r="12.454" />
                    </g>
                    <g transform="matrix(1.02995,0,0,1.02995,274.87,109.524)">
                        <path d="M160.328,171.372L166.127,182.97L154.529,182.97L160.328,171.372Z" />
                    </g>
                    <g transform="matrix(0.479575,0,0,0.479575,373.576,238.766)">
                        <circle cx="180.21" cy="111.002" r="12.454" />
                    </g>
                    <g transform="matrix(1.02995,0,0,1.02995,314.87,109.524)">
                        <path d="M160.328,171.372L166.127,182.97L154.529,182.97L160.328,171.372Z" />
                    </g>
                    <g transform="matrix(0.479575,0,0,0.479575,413.576,238.766)">
                        <circle cx="180.21" cy="111.002" r="12.454" />
                    </g>
                    <g transform="matrix(1.02995,0,0,1.02995,354.87,109.524)">
                        <path d="M160.328,171.372L166.127,182.97L154.529,182.97L160.328,171.372Z" />
                    </g>
                    <g transform="matrix(0.479575,0,0,0.479575,453.576,238.766)">
                        <circle cx="180.21" cy="111.002" r="12.454" />
                    </g>
                    <g transform="matrix(1.02995,0,0,1.02995,394.87,109.524)">
                        <path d="M160.328,171.372L166.127,182.97L154.529,182.97L160.328,171.372Z" />
                    </g>
                    <g transform="matrix(0.479575,0,0,0.479575,493.576,238.766)">
                        <circle cx="180.21" cy="111.002" r="12.454" />
                    </g>
                    <g transform="matrix(1.02995,0,0,1.02995,434.87,109.524)">
                        <path d="M160.328,171.372L166.127,182.97L154.529,182.97L160.328,171.372Z" />
                    </g>
                    <g transform="matrix(0.479575,0,0,0.479575,533.576,238.766)">
                        <circle cx="180.21" cy="111.002" r="12.454" />
                    </g>
                    <g transform="matrix(1.02995,0,0,1.02995,474.87,109.524)">
                        <path d="M160.328,171.372L166.127,182.97L154.529,182.97L160.328,171.372Z" />
                    </g>
                    <g transform="matrix(0.479575,0,0,0.479575,573.576,238.766)">
                        <circle cx="180.21" cy="111.002" r="12.454" />
                    </g>
                    <g transform="matrix(1.02995,0,0,1.02995,514.87,109.524)">
                        <path d="M160.328,171.372L166.127,182.97L154.529,182.97L160.328,171.372Z" />
                    </g>
                    <g transform="matrix(0.479575,0,0,0.479575,613.576,238.766)">
                        <circle cx="180.21" cy="111.002" r="12.454" />
                    </g>
                    <g transform="matrix(1.02995,0,0,1.02995,554.87,109.524)">
                        <path d="M160.328,171.372L166.127,182.97L154.529,182.97L160.328,171.372Z" />
                    </g>
                    <g transform="matrix(0.479575,0,0,0.479575,653.576,238.766)">
                        <circle cx="180.21" cy="111.002" r="12.454" />
                    </g>
                    <g transform="matrix(1.02995,0,0,1.02995,594.87,109.524)">
                        <path d="M160.328,171.372L166.127,182.97L154.529,182.97L160.328,171.372Z" />
                    </g>
                    <g transform="matrix(0.479575,0,0,0.479575,693.576,238.766)">
                        <circle cx="180.21" cy="111.002" r="12.454" />
                    </g>
                    <g transform="matrix(1.02995,0,0,1.02995,634.87,109.524)">
                        <path d="M160.328,171.372L166.127,182.97L154.529,182.97L160.328,171.372Z" />
                    </g>
                    <g transform="matrix(0.479575,0,0,0.479575,733.576,238.766)">
                        <circle cx="180.21" cy="111.002" r="12.454" />
                    </g>
                    <g transform="matrix(1.02995,0,0,1.02995,674.87,109.524)">
                        <path d="M160.328,171.372L166.127,182.97L154.529,182.97L160.328,171.372Z" />
                    </g>
                    <g transform="matrix(0.479575,0,0,0.479575,773.576,238.766)">
                        <circle cx="180.21" cy="111.002" r="12.454" />
                    </g>
                    <g transform="matrix(1.02995,0,0,1.02995,714.87,109.524)">
                        <path d="M160.328,171.372L166.127,182.97L154.529,182.97L160.328,171.372Z" />
                    </g>
                    <g transform="matrix(0.479575,0,0,0.479575,813.576,238.766)">
                        <circle cx="180.21" cy="111.002" r="12.454" />
                    </g>
                    <g transform="matrix(1.02995,0,0,1.02995,754.87,109.524)">
                        <path d="M160.328,171.372L166.127,182.97L154.529,182.97L160.328,171.372Z" />
                    </g>
                    <g transform="matrix(0.479575,0,0,0.479575,853.576,238.766)">
                        <circle cx="180.21" cy="111.002" r="12.454" />
                    </g>
                    <g transform="matrix(1.02995,0,0,1.02995,794.87,109.524)">
                        <path d="M160.328,171.372L166.127,182.97L154.529,182.97L160.328,171.372Z" />
                    </g>
                    <g transform="matrix(0.479575,0,0,0.479575,893.576,238.766)">
                        <circle cx="180.21" cy="111.002" r="12.454" />
                    </g>
                    <g transform="matrix(1.02995,0,0,1.02995,834.87,109.524)">
                        <path d="M160.328,171.372L166.127,182.97L154.529,182.97L160.328,171.372Z" />
                    </g>
                    <g transform="matrix(0.479575,0,0,0.479575,933.576,238.766)">
                        <circle cx="180.21" cy="111.002" r="12.454" />
                    </g>
                    <g transform="matrix(1.02995,0,0,1.02995,874.87,109.524)">
                        <path d="M160.328,171.372L166.127,182.97L154.529,182.97L160.328,171.372Z" />
                    </g>
                    <g transform="matrix(0.479575,0,0,0.479575,973.576,238.766)">
                        <circle cx="180.21" cy="111.002" r="12.454" />
                    </g>
                    <g transform="matrix(1.02995,0,0,1.02995,914.87,109.524)">
                        <path d="M160.328,171.372L166.127,182.97L154.529,182.97L160.328,171.372Z" />
                    </g>
                    <g transform="matrix(0.479575,0,0,0.479575,1013.58,238.766)">
                        <circle cx="180.21" cy="111.002" r="12.454" />
                    </g>
                    <g transform="matrix(1.02995,0,0,1.02995,954.87,109.524)">
                        <path d="M160.328,171.372L166.127,182.97L154.529,182.97L160.328,171.372Z" />
                    </g>
                    <g transform="matrix(0.479575,0,0,0.479575,1053.58,238.766)">
                        <circle cx="180.21" cy="111.002" r="12.454" />
                    </g>
                    <g transform="matrix(1.02995,0,0,1.02995,994.87,109.524)">
                        <path d="M160.328,171.372L166.127,182.97L154.529,182.97L160.328,171.372Z" />
                    </g>
                    <g transform="matrix(0.479575,0,0,0.479575,1093.58,238.766)">
                        <circle cx="180.21" cy="111.002" r="12.454" />
                    </g>
                    <g transform="matrix(1.02995,0,0,1.02995,1034.87,109.524)">
                        <path d="M160.328,171.372L166.127,182.97L154.529,182.97L160.328,171.372Z" />
                    </g>
                    <g transform="matrix(0.479575,0,0,0.479575,1133.58,238.766)">
                        <circle cx="180.21" cy="111.002" r="12.454" />
                    </g>
                    <g transform="matrix(1.02995,0,0,1.02995,1074.87,109.524)">
                        <path d="M160.328,171.372L166.127,182.97L154.529,182.97L160.328,171.372Z" />
                    </g>
                    <g transform="matrix(0.479575,0,0,0.479575,1173.58,238.766)">
                        <circle cx="180.21" cy="111.002" r="12.454" />
                    </g>
                    <g transform="matrix(1.02995,0,0,1.02995,1114.87,109.524)">
                        <path d="M160.328,171.372L166.127,182.97L154.529,182.97L160.328,171.372Z" />
                    </g>
                    <g transform="matrix(0.479575,0,0,0.479575,-86.4241,258.766)">
                        <circle cx="180.21" cy="111.002" r="12.454" />
                    </g>
                    <g transform="matrix(1.02995,0,0,1.02995,-145.13,129.524)">
                        <path d="M160.328,171.372L166.127,182.97L154.529,182.97L160.328,171.372Z" />
                    </g>
                    <g transform="matrix(0.479575,0,0,0.479575,-46.4241,258.766)">
                        <circle cx="180.21" cy="111.002" r="12.454" />
                    </g>
                    <g transform="matrix(1.02995,0,0,1.02995,-105.13,129.524)">
                        <path d="M160.328,171.372L166.127,182.97L154.529,182.97L160.328,171.372Z" />
                    </g>
                    <g transform="matrix(0.479575,0,0,0.479575,-6.42407,258.766)">
                        <circle cx="180.21" cy="111.002" r="12.454" />
                    </g>
                    <g transform="matrix(1.02995,0,0,1.02995,-65.1296,129.524)">
                        <path d="M160.328,171.372L166.127,182.97L154.529,182.97L160.328,171.372Z" />
                    </g>
                    <g transform="matrix(0.479575,0,0,0.479575,33.5759,258.766)">
                        <circle cx="180.21" cy="111.002" r="12.454" />
                    </g>
                    <g transform="matrix(1.02995,0,0,1.02995,-25.1296,129.524)">
                        <path d="M160.328,171.372L166.127,182.97L154.529,182.97L160.328,171.372Z" />
                    </g>
                    <g transform="matrix(0.479575,0,0,0.479575,73.5759,258.766)">
                        <circle cx="180.21" cy="111.002" r="12.454" />
                    </g>
                    <g transform="matrix(1.02995,0,0,1.02995,14.8704,129.524)">
                        <path d="M160.328,171.372L166.127,182.97L154.529,182.97L160.328,171.372Z" />
                    </g>
                    <g transform="matrix(0.479575,0,0,0.479575,113.576,258.766)">
                        <circle cx="180.21" cy="111.002" r="12.454" />
                    </g>
                    <g transform="matrix(1.02995,0,0,1.02995,54.8704,129.524)">
                        <path d="M160.328,171.372L166.127,182.97L154.529,182.97L160.328,171.372Z" />
                    </g>
                    <g transform="matrix(0.479575,0,0,0.479575,153.576,258.766)">
                        <circle cx="180.21" cy="111.002" r="12.454" />
                    </g>
                    <g transform="matrix(1.02995,0,0,1.02995,94.8704,129.524)">
                        <path d="M160.328,171.372L166.127,182.97L154.529,182.97L160.328,171.372Z" />
                    </g>
                    <g transform="matrix(0.479575,0,0,0.479575,193.576,258.766)">
                        <circle cx="180.21" cy="111.002" r="12.454" />
                    </g>
                    <g transform="matrix(1.02995,0,0,1.02995,134.87,129.524)">
                        <path d="M160.328,171.372L166.127,182.97L154.529,182.97L160.328,171.372Z" />
                    </g>
                    <g transform="matrix(0.479575,0,0,0.479575,233.576,258.766)">
                        <circle cx="180.21" cy="111.002" r="12.454" />
                    </g>
                    <g transform="matrix(1.02995,0,0,1.02995,174.87,129.524)">
                        <path d="M160.328,171.372L166.127,182.97L154.529,182.97L160.328,171.372Z" />
                    </g>
                    <g transform="matrix(0.479575,0,0,0.479575,273.576,258.766)">
                        <circle cx="180.21" cy="111.002" r="12.454" />
                    </g>
                    <g transform="matrix(1.02995,0,0,1.02995,214.87,129.524)">
                        <path d="M160.328,171.372L166.127,182.97L154.529,182.97L160.328,171.372Z" />
                    </g>
                    <g transform="matrix(0.479575,0,0,0.479575,313.576,258.766)">
                        <circle cx="180.21" cy="111.002" r="12.454" />
                    </g>
                    <g transform="matrix(1.02995,0,0,1.02995,254.87,129.524)">
                        <path d="M160.328,171.372L166.127,182.97L154.529,182.97L160.328,171.372Z" />
                    </g>
                    <g transform="matrix(0.479575,0,0,0.479575,353.576,258.766)">
                        <circle cx="180.21" cy="111.002" r="12.454" />
                    </g>
                    <g transform="matrix(1.02995,0,0,1.02995,294.87,129.524)">
                        <path d="M160.328,171.372L166.127,182.97L154.529,182.97L160.328,171.372Z" />
                    </g>
                    <g transform="matrix(0.479575,0,0,0.479575,393.576,258.766)">
                        <circle cx="180.21" cy="111.002" r="12.454" />
                    </g>
                    <g transform="matrix(1.02995,0,0,1.02995,334.87,129.524)">
                        <path d="M160.328,171.372L166.127,182.97L154.529,182.97L160.328,171.372Z" />
                    </g>
                    <g transform="matrix(0.479575,0,0,0.479575,433.576,258.766)">
                        <circle cx="180.21" cy="111.002" r="12.454" />
                    </g>
                    <g transform="matrix(1.02995,0,0,1.02995,374.87,129.524)">
                        <path d="M160.328,171.372L166.127,182.97L154.529,182.97L160.328,171.372Z" />
                    </g>
                    <g transform="matrix(0.479575,0,0,0.479575,473.576,258.766)">
                        <circle cx="180.21" cy="111.002" r="12.454" />
                    </g>
                    <g transform="matrix(1.02995,0,0,1.02995,414.87,129.524)">
                        <path d="M160.328,171.372L166.127,182.97L154.529,182.97L160.328,171.372Z" />
                    </g>
                    <g transform="matrix(0.479575,0,0,0.479575,513.576,258.766)">
                        <circle cx="180.21" cy="111.002" r="12.454" />
                    </g>
                    <g transform="matrix(1.02995,0,0,1.02995,454.87,129.524)">
                        <path d="M160.328,171.372L166.127,182.97L154.529,182.97L160.328,171.372Z" />
                    </g>
                    <g transform="matrix(0.479575,0,0,0.479575,553.576,258.766)">
                        <circle cx="180.21" cy="111.002" r="12.454" />
                    </g>
                    <g transform="matrix(1.02995,0,0,1.02995,494.87,129.524)">
                        <path d="M160.328,171.372L166.127,182.97L154.529,182.97L160.328,171.372Z" />
                    </g>
                    <g transform="matrix(0.479575,0,0,0.479575,593.576,258.766)">
                        <circle cx="180.21" cy="111.002" r="12.454" />
                    </g>
                    <g transform="matrix(1.02995,0,0,1.02995,534.87,129.524)">
                        <path d="M160.328,171.372L166.127,182.97L154.529,182.97L160.328,171.372Z" />
                    </g>
                    <g transform="matrix(0.479575,0,0,0.479575,633.576,258.766)">
                        <circle cx="180.21" cy="111.002" r="12.454" />
                    </g>
                    <g transform="matrix(1.02995,0,0,1.02995,574.87,129.524)">
                        <path d="M160.328,171.372L166.127,182.97L154.529,182.97L160.328,171.372Z" />
                    </g>
                    <g transform="matrix(0.479575,0,0,0.479575,673.576,258.766)">
                        <circle cx="180.21" cy="111.002" r="12.454" />
                    </g>
                    <g transform="matrix(1.02995,0,0,1.02995,614.87,129.524)">
                        <path d="M160.328,171.372L166.127,182.97L154.529,182.97L160.328,171.372Z" />
                    </g>
                    <g transform="matrix(0.479575,0,0,0.479575,713.576,258.766)">
                        <circle cx="180.21" cy="111.002" r="12.454" />
                    </g>
                    <g transform="matrix(1.02995,0,0,1.02995,654.87,129.524)">
                        <path d="M160.328,171.372L166.127,182.97L154.529,182.97L160.328,171.372Z" />
                    </g>
                    <g transform="matrix(0.479575,0,0,0.479575,753.576,258.766)">
                        <circle cx="180.21" cy="111.002" r="12.454" />
                    </g>
                    <g transform="matrix(1.02995,0,0,1.02995,694.87,129.524)">
                        <path d="M160.328,171.372L166.127,182.97L154.529,182.97L160.328,171.372Z" />
                    </g>
                    <g transform="matrix(0.479575,0,0,0.479575,793.576,258.766)">
                        <circle cx="180.21" cy="111.002" r="12.454" />
                    </g>
                    <g transform="matrix(1.02995,0,0,1.02995,734.87,129.524)">
                        <path d="M160.328,171.372L166.127,182.97L154.529,182.97L160.328,171.372Z" />
                    </g>
                    <g transform="matrix(0.479575,0,0,0.479575,833.576,258.766)">
                        <circle cx="180.21" cy="111.002" r="12.454" />
                    </g>
                    <g transform="matrix(1.02995,0,0,1.02995,774.87,129.524)">
                        <path d="M160.328,171.372L166.127,182.97L154.529,182.97L160.328,171.372Z" />
                    </g>
                    <g transform="matrix(0.479575,0,0,0.479575,873.576,258.766)">
                        <circle cx="180.21" cy="111.002" r="12.454" />
                    </g>
                    <g transform="matrix(1.02995,0,0,1.02995,814.87,129.524)">
                        <path d="M160.328,171.372L166.127,182.97L154.529,182.97L160.328,171.372Z" />
                    </g>
                    <g transform="matrix(0.479575,0,0,0.479575,913.576,258.766)">
                        <circle cx="180.21" cy="111.002" r="12.454" />
                    </g>
                    <g transform="matrix(1.02995,0,0,1.02995,854.87,129.524)">
                        <path d="M160.328,171.372L166.127,182.97L154.529,182.97L160.328,171.372Z" />
                    </g>
                    <g transform="matrix(0.479575,0,0,0.479575,953.576,258.766)">
                        <circle cx="180.21" cy="111.002" r="12.454" />
                    </g>
                    <g transform="matrix(1.02995,0,0,1.02995,894.87,129.524)">
                        <path d="M160.328,171.372L166.127,182.97L154.529,182.97L160.328,171.372Z" />
                    </g>
                    <g transform="matrix(0.479575,0,0,0.479575,993.576,258.766)">
                        <circle cx="180.21" cy="111.002" r="12.454" />
                    </g>
                    <g transform="matrix(1.02995,0,0,1.02995,934.87,129.524)">
                        <path d="M160.328,171.372L166.127,182.97L154.529,182.97L160.328,171.372Z" />
                    </g>
                    <g transform="matrix(0.479575,0,0,0.479575,1033.58,258.766)">
                        <circle cx="180.21" cy="111.002" r="12.454" />
                    </g>
                    <g transform="matrix(1.02995,0,0,1.02995,974.87,129.524)">
                        <path d="M160.328,171.372L166.127,182.97L154.529,182.97L160.328,171.372Z" />
                    </g>
                    <g transform="matrix(0.479575,0,0,0.479575,1073.58,258.766)">
                        <circle cx="180.21" cy="111.002" r="12.454" />
                    </g>
                    <g transform="matrix(1.02995,0,0,1.02995,1014.87,129.524)">
                        <path d="M160.328,171.372L166.127,182.97L154.529,182.97L160.328,171.372Z" />
                    </g>
                    <g transform="matrix(0.479575,0,0,0.479575,1113.58,258.766)">
                        <circle cx="180.21" cy="111.002" r="12.454" />
                    </g>
                    <g transform="matrix(1.02995,0,0,1.02995,1054.87,129.524)">
                        <path d="M160.328,171.372L166.127,182.97L154.529,182.97L160.328,171.372Z" />
                    </g>
                    <g transform="matrix(0.479575,0,0,0.479575,1153.58,258.766)">
                        <circle cx="180.21" cy="111.002" r="12.454" />
                    </g>
                    <g transform="matrix(1.02995,0,0,1.02995,1094.87,129.524)">
                        <path d="M160.328,171.372L166.127,182.97L154.529,182.97L160.328,171.372Z" />
                    </g>
                    <g transform="matrix(0.479575,0,0,0.479575,1193.58,258.766)">
                        <circle cx="180.21" cy="111.002" r="12.454" />
                    </g>
                    <g transform="matrix(1.02995,0,0,1.02995,-165.13,149.524)">
                        <path d="M160.328,171.372L166.127,182.97L154.529,182.97L160.328,171.372Z" />
                    </g>
                    <g transform="matrix(0.479575,0,0,0.479575,-66.4241,278.766)">
                        <circle cx="180.21" cy="111.002" r="12.454" />
                    </g>
                    <g transform="matrix(1.02995,0,0,1.02995,-125.13,149.524)">
                        <path d="M160.328,171.372L166.127,182.97L154.529,182.97L160.328,171.372Z" />
                    </g>
                    <g transform="matrix(0.479575,0,0,0.479575,-26.4241,278.766)">
                        <circle cx="180.21" cy="111.002" r="12.454" />
                    </g>
                    <g transform="matrix(1.02995,0,0,1.02995,-85.1296,149.524)">
                        <path d="M160.328,171.372L166.127,182.97L154.529,182.97L160.328,171.372Z" />
                    </g>
                    <g transform="matrix(0.479575,0,0,0.479575,13.5759,278.766)">
                        <circle cx="180.21" cy="111.002" r="12.454" />
                    </g>
                    <g transform="matrix(1.02995,0,0,1.02995,-45.1296,149.524)">
                        <path d="M160.328,171.372L166.127,182.97L154.529,182.97L160.328,171.372Z" />
                    </g>
                    <g transform="matrix(0.479575,0,0,0.479575,53.5759,278.766)">
                        <circle cx="180.21" cy="111.002" r="12.454" />
                    </g>
                    <g transform="matrix(1.02995,0,0,1.02995,-5.12956,149.524)">
                        <path d="M160.328,171.372L166.127,182.97L154.529,182.97L160.328,171.372Z" />
                    </g>
                    <g transform="matrix(0.479575,0,0,0.479575,93.5759,278.766)">
                        <circle cx="180.21" cy="111.002" r="12.454" />
                    </g>
                    <g transform="matrix(1.02995,0,0,1.02995,34.8704,149.524)">
                        <path d="M160.328,171.372L166.127,182.97L154.529,182.97L160.328,171.372Z" />
                    </g>
                    <g transform="matrix(0.479575,0,0,0.479575,133.576,278.766)">
                        <circle cx="180.21" cy="111.002" r="12.454" />
                    </g>
                    <g transform="matrix(1.02995,0,0,1.02995,74.8704,149.524)">
                        <path d="M160.328,171.372L166.127,182.97L154.529,182.97L160.328,171.372Z" />
                    </g>
                    <g transform="matrix(0.479575,0,0,0.479575,173.576,278.766)">
                        <circle cx="180.21" cy="111.002" r="12.454" />
                    </g>
                    <g transform="matrix(1.02995,0,0,1.02995,114.87,149.524)">
                        <path d="M160.328,171.372L166.127,182.97L154.529,182.97L160.328,171.372Z" />
                    </g>
                    <g transform="matrix(0.479575,0,0,0.479575,213.576,278.766)">
                        <circle cx="180.21" cy="111.002" r="12.454" />
                    </g>
                    <g transform="matrix(1.02995,0,0,1.02995,154.87,149.524)">
                        <path d="M160.328,171.372L166.127,182.97L154.529,182.97L160.328,171.372Z" />
                    </g>
                    <g transform="matrix(0.479575,0,0,0.479575,253.576,278.766)">
                        <circle cx="180.21" cy="111.002" r="12.454" />
                    </g>
                    <g transform="matrix(1.02995,0,0,1.02995,194.87,149.524)">
                        <path d="M160.328,171.372L166.127,182.97L154.529,182.97L160.328,171.372Z" />
                    </g>
                    <g transform="matrix(0.479575,0,0,0.479575,293.576,278.766)">
                        <circle cx="180.21" cy="111.002" r="12.454" />
                    </g>
                    <g transform="matrix(1.02995,0,0,1.02995,234.87,149.524)">
                        <path d="M160.328,171.372L166.127,182.97L154.529,182.97L160.328,171.372Z" />
                    </g>
                    <g transform="matrix(0.479575,0,0,0.479575,333.576,278.766)">
                        <circle cx="180.21" cy="111.002" r="12.454" />
                    </g>
                    <g transform="matrix(1.02995,0,0,1.02995,274.87,149.524)">
                        <path d="M160.328,171.372L166.127,182.97L154.529,182.97L160.328,171.372Z" />
                    </g>
                    <g transform="matrix(0.479575,0,0,0.479575,373.576,278.766)">
                        <circle cx="180.21" cy="111.002" r="12.454" />
                    </g>
                    <g transform="matrix(1.02995,0,0,1.02995,314.87,149.524)">
                        <path d="M160.328,171.372L166.127,182.97L154.529,182.97L160.328,171.372Z" />
                    </g>
                    <g transform="matrix(0.479575,0,0,0.479575,413.576,278.766)">
                        <circle cx="180.21" cy="111.002" r="12.454" />
                    </g>
                    <g transform="matrix(1.02995,0,0,1.02995,354.87,149.524)">
                        <path d="M160.328,171.372L166.127,182.97L154.529,182.97L160.328,171.372Z" />
                    </g>
                    <g transform="matrix(0.479575,0,0,0.479575,453.576,278.766)">
                        <circle cx="180.21" cy="111.002" r="12.454" />
                    </g>
                    <g transform="matrix(1.02995,0,0,1.02995,394.87,149.524)">
                        <path d="M160.328,171.372L166.127,182.97L154.529,182.97L160.328,171.372Z" />
                    </g>
                    <g transform="matrix(0.479575,0,0,0.479575,493.576,278.766)">
                        <circle cx="180.21" cy="111.002" r="12.454" />
                    </g>
                    <g transform="matrix(1.02995,0,0,1.02995,434.87,149.524)">
                        <path d="M160.328,171.372L166.127,182.97L154.529,182.97L160.328,171.372Z" />
                    </g>
                    <g transform="matrix(0.479575,0,0,0.479575,533.576,278.766)">
                        <circle cx="180.21" cy="111.002" r="12.454" />
                    </g>
                    <g transform="matrix(1.02995,0,0,1.02995,474.87,149.524)">
                        <path d="M160.328,171.372L166.127,182.97L154.529,182.97L160.328,171.372Z" />
                    </g>
                    <g transform="matrix(0.479575,0,0,0.479575,573.576,278.766)">
                        <circle cx="180.21" cy="111.002" r="12.454" />
                    </g>
                    <g transform="matrix(1.02995,0,0,1.02995,514.87,149.524)">
                        <path d="M160.328,171.372L166.127,182.97L154.529,182.97L160.328,171.372Z" />
                    </g>
                    <g transform="matrix(0.479575,0,0,0.479575,613.576,278.766)">
                        <circle cx="180.21" cy="111.002" r="12.454" />
                    </g>
                    <g transform="matrix(1.02995,0,0,1.02995,554.87,149.524)">
                        <path d="M160.328,171.372L166.127,182.97L154.529,182.97L160.328,171.372Z" />
                    </g>
                    <g transform="matrix(0.479575,0,0,0.479575,653.576,278.766)">
                        <circle cx="180.21" cy="111.002" r="12.454" />
                    </g>
                    <g transform="matrix(1.02995,0,0,1.02995,594.87,149.524)">
                        <path d="M160.328,171.372L166.127,182.97L154.529,182.97L160.328,171.372Z" />
                    </g>
                    <g transform="matrix(0.479575,0,0,0.479575,693.576,278.766)">
                        <circle cx="180.21" cy="111.002" r="12.454" />
                    </g>
                    <g transform="matrix(1.02995,0,0,1.02995,634.87,149.524)">
                        <path d="M160.328,171.372L166.127,182.97L154.529,182.97L160.328,171.372Z" />
                    </g>
                    <g transform="matrix(0.479575,0,0,0.479575,733.576,278.766)">
                        <circle cx="180.21" cy="111.002" r="12.454" />
                    </g>
                    <g transform="matrix(1.02995,0,0,1.02995,674.87,149.524)">
                        <path d="M160.328,171.372L166.127,182.97L154.529,182.97L160.328,171.372Z" />
                    </g>
                    <g transform="matrix(0.479575,0,0,0.479575,773.576,278.766)">
                        <circle cx="180.21" cy="111.002" r="12.454" />
                    </g>
                    <g transform="matrix(1.02995,0,0,1.02995,714.87,149.524)">
                        <path d="M160.328,171.372L166.127,182.97L154.529,182.97L160.328,171.372Z" />
                    </g>
                    <g transform="matrix(0.479575,0,0,0.479575,813.576,278.766)">
                        <circle cx="180.21" cy="111.002" r="12.454" />
                    </g>
                    <g transform="matrix(1.02995,0,0,1.02995,754.87,149.524)">
                        <path d="M160.328,171.372L166.127,182.97L154.529,182.97L160.328,171.372Z" />
                    </g>
                    <g transform="matrix(0.479575,0,0,0.479575,853.576,278.766)">
                        <circle cx="180.21" cy="111.002" r="12.454" />
                    </g>
                    <g transform="matrix(1.02995,0,0,1.02995,794.87,149.524)">
                        <path d="M160.328,171.372L166.127,182.97L154.529,182.97L160.328,171.372Z" />
                    </g>
                    <g transform="matrix(0.479575,0,0,0.479575,893.576,278.766)">
                        <circle cx="180.21" cy="111.002" r="12.454" />
                    </g>
                    <g transform="matrix(1.02995,0,0,1.02995,834.87,149.524)">
                        <path d="M160.328,171.372L166.127,182.97L154.529,182.97L160.328,171.372Z" />
                    </g>
                    <g transform="matrix(0.479575,0,0,0.479575,933.576,278.766)">
                        <circle cx="180.21" cy="111.002" r="12.454" />
                    </g>
                    <g transform="matrix(1.02995,0,0,1.02995,874.87,149.524)">
                        <path d="M160.328,171.372L166.127,182.97L154.529,182.97L160.328,171.372Z" />
                    </g>
                    <g transform="matrix(0.479575,0,0,0.479575,973.576,278.766)">
                        <circle cx="180.21" cy="111.002" r="12.454" />
                    </g>
                    <g transform="matrix(1.02995,0,0,1.02995,914.87,149.524)">
                        <path d="M160.328,171.372L166.127,182.97L154.529,182.97L160.328,171.372Z" />
                    </g>
                    <g transform="matrix(0.479575,0,0,0.479575,1013.58,278.766)">
                        <circle cx="180.21" cy="111.002" r="12.454" />
                    </g>
                    <g transform="matrix(1.02995,0,0,1.02995,954.87,149.524)">
                        <path d="M160.328,171.372L166.127,182.97L154.529,182.97L160.328,171.372Z" />
                    </g>
                    <g transform="matrix(0.479575,0,0,0.479575,1053.58,278.766)">
                        <circle cx="180.21" cy="111.002" r="12.454" />
                    </g>
                    <g transform="matrix(1.02995,0,0,1.02995,994.87,149.524)">
                        <path d="M160.328,171.372L166.127,182.97L154.529,182.97L160.328,171.372Z" />
                    </g>
                    <g transform="matrix(0.479575,0,0,0.479575,1093.58,278.766)">
                        <circle cx="180.21" cy="111.002" r="12.454" />
                    </g>
                    <g transform="matrix(1.02995,0,0,1.02995,1034.87,149.524)">
                        <path d="M160.328,171.372L166.127,182.97L154.529,182.97L160.328,171.372Z" />
                    </g>
                    <g transform="matrix(0.479575,0,0,0.479575,1133.58,278.766)">
                        <circle cx="180.21" cy="111.002" r="12.454" />
                    </g>
                    <g transform="matrix(1.02995,0,0,1.02995,1074.87,149.524)">
                        <path d="M160.328,171.372L166.127,182.97L154.529,182.97L160.328,171.372Z" />
                    </g>
                    <g transform="matrix(0.479575,0,0,0.479575,1173.58,278.766)">
                        <circle cx="180.21" cy="111.002" r="12.454" />
                    </g>
                    <g transform="matrix(1.02995,0,0,1.02995,1114.87,149.524)">
                        <path d="M160.328,171.372L166.127,182.97L154.529,182.97L160.328,171.372Z" />
                    </g>
                    <g transform="matrix(0.479575,0,0,0.479575,-86.4241,298.766)">
                        <circle cx="180.21" cy="111.002" r="12.454" />
                    </g>
                    <g transform="matrix(1.02995,0,0,1.02995,-145.13,169.524)">
                        <path d="M160.328,171.372L166.127,182.97L154.529,182.97L160.328,171.372Z" />
                    </g>
                    <g transform="matrix(0.479575,0,0,0.479575,-46.4241,298.766)">
                        <circle cx="180.21" cy="111.002" r="12.454" />
                    </g>
                    <g transform="matrix(1.02995,0,0,1.02995,-105.13,169.524)">
                        <path d="M160.328,171.372L166.127,182.97L154.529,182.97L160.328,171.372Z" />
                    </g>
                    <g transform="matrix(0.479575,0,0,0.479575,-6.42407,298.766)">
                        <circle cx="180.21" cy="111.002" r="12.454" />
                    </g>
                    <g transform="matrix(1.02995,0,0,1.02995,-65.1296,169.524)">
                        <path d="M160.328,171.372L166.127,182.97L154.529,182.97L160.328,171.372Z" />
                    </g>
                    <g transform="matrix(0.479575,0,0,0.479575,33.5759,298.766)">
                        <circle cx="180.21" cy="111.002" r="12.454" />
                    </g>
                    <g transform="matrix(1.02995,0,0,1.02995,-25.1296,169.524)">
                        <path d="M160.328,171.372L166.127,182.97L154.529,182.97L160.328,171.372Z" />
                    </g>
                    <g transform="matrix(0.479575,0,0,0.479575,73.5759,298.766)">
                        <circle cx="180.21" cy="111.002" r="12.454" />
                    </g>
                    <g transform="matrix(1.02995,0,0,1.02995,14.8704,169.524)">
                        <path d="M160.328,171.372L166.127,182.97L154.529,182.97L160.328,171.372Z" />
                    </g>
                    <g transform="matrix(0.479575,0,0,0.479575,113.576,298.766)">
                        <circle cx="180.21" cy="111.002" r="12.454" />
                    </g>
                    <g transform="matrix(1.02995,0,0,1.02995,54.8704,169.524)">
                        <path d="M160.328,171.372L166.127,182.97L154.529,182.97L160.328,171.372Z" />
                    </g>
                    <g transform="matrix(0.479575,0,0,0.479575,153.576,298.766)">
                        <circle cx="180.21" cy="111.002" r="12.454" />
                    </g>
                    <g transform="matrix(1.02995,0,0,1.02995,94.8704,169.524)">
                        <path d="M160.328,171.372L166.127,182.97L154.529,182.97L160.328,171.372Z" />
                    </g>
                    <g transform="matrix(0.479575,0,0,0.479575,193.576,298.766)">
                        <circle cx="180.21" cy="111.002" r="12.454" />
                    </g>
                    <g transform="matrix(1.02995,0,0,1.02995,134.87,169.524)">
                        <path d="M160.328,171.372L166.127,182.97L154.529,182.97L160.328,171.372Z" />
                    </g>
                    <g transform="matrix(0.479575,0,0,0.479575,233.576,298.766)">
                        <circle cx="180.21" cy="111.002" r="12.454" />
                    </g>
                    <g transform="matrix(1.02995,0,0,1.02995,174.87,169.524)">
                        <path d="M160.328,171.372L166.127,182.97L154.529,182.97L160.328,171.372Z" />
                    </g>
                    <g transform="matrix(0.479575,0,0,0.479575,273.576,298.766)">
                        <circle cx="180.21" cy="111.002" r="12.454" />
                    </g>
                    <g transform="matrix(1.02995,0,0,1.02995,214.87,169.524)">
                        <path d="M160.328,171.372L166.127,182.97L154.529,182.97L160.328,171.372Z" />
                    </g>
                    <g transform="matrix(0.479575,0,0,0.479575,313.576,298.766)">
                        <circle cx="180.21" cy="111.002" r="12.454" />
                    </g>
                    <g transform="matrix(1.02995,0,0,1.02995,254.87,169.524)">
                        <path d="M160.328,171.372L166.127,182.97L154.529,182.97L160.328,171.372Z" />
                    </g>
                    <g transform="matrix(0.479575,0,0,0.479575,353.576,298.766)">
                        <circle cx="180.21" cy="111.002" r="12.454" />
                    </g>
                    <g transform="matrix(1.02995,0,0,1.02995,294.87,169.524)">
                        <path d="M160.328,171.372L166.127,182.97L154.529,182.97L160.328,171.372Z" />
                    </g>
                    <g transform="matrix(0.479575,0,0,0.479575,393.576,298.766)">
                        <circle cx="180.21" cy="111.002" r="12.454" />
                    </g>
                    <g transform="matrix(1.02995,0,0,1.02995,334.87,169.524)">
                        <path d="M160.328,171.372L166.127,182.97L154.529,182.97L160.328,171.372Z" />
                    </g>
                    <g transform="matrix(0.479575,0,0,0.479575,433.576,298.766)">
                        <circle cx="180.21" cy="111.002" r="12.454" />
                    </g>
                    <g transform="matrix(1.02995,0,0,1.02995,374.87,169.524)">
                        <path d="M160.328,171.372L166.127,182.97L154.529,182.97L160.328,171.372Z" />
                    </g>
                    <g transform="matrix(0.479575,0,0,0.479575,473.576,298.766)">
                        <circle cx="180.21" cy="111.002" r="12.454" />
                    </g>
                    <g transform="matrix(1.02995,0,0,1.02995,414.87,169.524)">
                        <path d="M160.328,171.372L166.127,182.97L154.529,182.97L160.328,171.372Z" />
                    </g>
                    <g transform="matrix(0.479575,0,0,0.479575,513.576,298.766)">
                        <circle cx="180.21" cy="111.002" r="12.454" />
                    </g>
                    <g transform="matrix(1.02995,0,0,1.02995,454.87,169.524)">
                        <path d="M160.328,171.372L166.127,182.97L154.529,182.97L160.328,171.372Z" />
                    </g>
                    <g transform="matrix(0.479575,0,0,0.479575,553.576,298.766)">
                        <circle cx="180.21" cy="111.002" r="12.454" />
                    </g>
                    <g transform="matrix(1.02995,0,0,1.02995,494.87,169.524)">
                        <path d="M160.328,171.372L166.127,182.97L154.529,182.97L160.328,171.372Z" />
                    </g>
                    <g transform="matrix(0.479575,0,0,0.479575,593.576,298.766)">
                        <circle cx="180.21" cy="111.002" r="12.454" />
                    </g>
                    <g transform="matrix(1.02995,0,0,1.02995,534.87,169.524)">
                        <path d="M160.328,171.372L166.127,182.97L154.529,182.97L160.328,171.372Z" />
                    </g>
                    <g transform="matrix(0.479575,0,0,0.479575,633.576,298.766)">
                        <circle cx="180.21" cy="111.002" r="12.454" />
                    </g>
                    <g transform="matrix(1.02995,0,0,1.02995,574.87,169.524)">
                        <path d="M160.328,171.372L166.127,182.97L154.529,182.97L160.328,171.372Z" />
                    </g>
                    <g transform="matrix(0.479575,0,0,0.479575,673.576,298.766)">
                        <circle cx="180.21" cy="111.002" r="12.454" />
                    </g>
                    <g transform="matrix(1.02995,0,0,1.02995,614.87,169.524)">
                        <path d="M160.328,171.372L166.127,182.97L154.529,182.97L160.328,171.372Z" />
                    </g>
                    <g transform="matrix(0.479575,0,0,0.479575,713.576,298.766)">
                        <circle cx="180.21" cy="111.002" r="12.454" />
                    </g>
                    <g transform="matrix(1.02995,0,0,1.02995,654.87,169.524)">
                        <path d="M160.328,171.372L166.127,182.97L154.529,182.97L160.328,171.372Z" />
                    </g>
                    <g transform="matrix(0.479575,0,0,0.479575,753.576,298.766)">
                        <circle cx="180.21" cy="111.002" r="12.454" />
                    </g>
                    <g transform="matrix(1.02995,0,0,1.02995,694.87,169.524)">
                        <path d="M160.328,171.372L166.127,182.97L154.529,182.97L160.328,171.372Z" />
                    </g>
                    <g transform="matrix(0.479575,0,0,0.479575,793.576,298.766)">
                        <circle cx="180.21" cy="111.002" r="12.454" />
                    </g>
                    <g transform="matrix(1.02995,0,0,1.02995,734.87,169.524)">
                        <path d="M160.328,171.372L166.127,182.97L154.529,182.97L160.328,171.372Z" />
                    </g>
                    <g transform="matrix(0.479575,0,0,0.479575,833.576,298.766)">
                        <circle cx="180.21" cy="111.002" r="12.454" />
                    </g>
                    <g transform="matrix(1.02995,0,0,1.02995,774.87,169.524)">
                        <path d="M160.328,171.372L166.127,182.97L154.529,182.97L160.328,171.372Z" />
                    </g>
                    <g transform="matrix(0.479575,0,0,0.479575,873.576,298.766)">
                        <circle cx="180.21" cy="111.002" r="12.454" />
                    </g>
                    <g transform="matrix(1.02995,0,0,1.02995,814.87,169.524)">
                        <path d="M160.328,171.372L166.127,182.97L154.529,182.97L160.328,171.372Z" />
                    </g>
                    <g transform="matrix(0.479575,0,0,0.479575,913.576,298.766)">
                        <circle cx="180.21" cy="111.002" r="12.454" />
                    </g>
                    <g transform="matrix(1.02995,0,0,1.02995,854.87,169.524)">
                        <path d="M160.328,171.372L166.127,182.97L154.529,182.97L160.328,171.372Z" />
                    </g>
                    <g transform="matrix(0.479575,0,0,0.479575,953.576,298.766)">
                        <circle cx="180.21" cy="111.002" r="12.454" />
                    </g>
                    <g transform="matrix(1.02995,0,0,1.02995,894.87,169.524)">
                        <path d="M160.328,171.372L166.127,182.97L154.529,182.97L160.328,171.372Z" />
                    </g>
                    <g transform="matrix(0.479575,0,0,0.479575,993.576,298.766)">
                        <circle cx="180.21" cy="111.002" r="12.454" />
                    </g>
                    <g transform="matrix(1.02995,0,0,1.02995,934.87,169.524)">
                        <path d="M160.328,171.372L166.127,182.97L154.529,182.97L160.328,171.372Z" />
                    </g>
                    <g transform="matrix(0.479575,0,0,0.479575,1033.58,298.766)">
                        <circle cx="180.21" cy="111.002" r="12.454" />
                    </g>
                    <g transform="matrix(1.02995,0,0,1.02995,974.87,169.524)">
                        <path d="M160.328,171.372L166.127,182.97L154.529,182.97L160.328,171.372Z" />
                    </g>
                    <g transform="matrix(0.479575,0,0,0.479575,1073.58,298.766)">
                        <circle cx="180.21" cy="111.002" r="12.454" />
                    </g>
                    <g transform="matrix(1.02995,0,0,1.02995,1014.87,169.524)">
                        <path d="M160.328,171.372L166.127,182.97L154.529,182.97L160.328,171.372Z" />
                    </g>
                    <g transform="matrix(0.479575,0,0,0.479575,1113.58,298.766)">
                        <circle cx="180.21" cy="111.002" r="12.454" />
                    </g>
                    <g transform="matrix(1.02995,0,0,1.02995,1054.87,169.524)">
                        <path d="M160.328,171.372L166.127,182.97L154.529,182.97L160.328,171.372Z" />
                    </g>
                    <g transform="matrix(0.479575,0,0,0.479575,1153.58,298.766)">
                        <circle cx="180.21" cy="111.002" r="12.454" />
                    </g>
                    <g transform="matrix(1.02995,0,0,1.02995,1094.87,169.524)">
                        <path d="M160.328,171.372L166.127,182.97L154.529,182.97L160.328,171.372Z" />
                    </g>
                    <g transform="matrix(0.479575,0,0,0.479575,1193.58,298.766)">
                        <circle cx="180.21" cy="111.002" r="12.454" />
                    </g>
                    <g transform="matrix(1.02995,0,0,1.02995,-165.13,189.524)">
                        <path d="M160.328,171.372L166.127,182.97L154.529,182.97L160.328,171.372Z" />
                    </g>
                    <g transform="matrix(0.479575,0,0,0.479575,-66.4241,318.766)">
                        <circle cx="180.21" cy="111.002" r="12.454" />
                    </g>
                    <g transform="matrix(1.02995,0,0,1.02995,-125.13,189.524)">
                        <path d="M160.328,171.372L166.127,182.97L154.529,182.97L160.328,171.372Z" />
                    </g>
                    <g transform="matrix(0.479575,0,0,0.479575,-26.4241,318.766)">
                        <circle cx="180.21" cy="111.002" r="12.454" />
                    </g>
                    <g transform="matrix(1.02995,0,0,1.02995,-85.1296,189.524)">
                        <path d="M160.328,171.372L166.127,182.97L154.529,182.97L160.328,171.372Z" />
                    </g>
                    <g transform="matrix(0.479575,0,0,0.479575,13.5759,318.766)">
                        <circle cx="180.21" cy="111.002" r="12.454" />
                    </g>
                    <g transform="matrix(1.02995,0,0,1.02995,-45.1296,189.524)">
                        <path d="M160.328,171.372L166.127,182.97L154.529,182.97L160.328,171.372Z" />
                    </g>
                    <g transform="matrix(0.479575,0,0,0.479575,53.5759,318.766)">
                        <circle cx="180.21" cy="111.002" r="12.454" />
                    </g>
                    <g transform="matrix(1.02995,0,0,1.02995,-5.12956,189.524)">
                        <path d="M160.328,171.372L166.127,182.97L154.529,182.97L160.328,171.372Z" />
                    </g>
                    <g transform="matrix(0.479575,0,0,0.479575,93.5759,318.766)">
                        <circle cx="180.21" cy="111.002" r="12.454" />
                    </g>
                    <g transform="matrix(1.02995,0,0,1.02995,34.8704,189.524)">
                        <path d="M160.328,171.372L166.127,182.97L154.529,182.97L160.328,171.372Z" />
                    </g>
                    <g transform="matrix(0.479575,0,0,0.479575,133.576,318.766)">
                        <circle cx="180.21" cy="111.002" r="12.454" />
                    </g>
                    <g transform="matrix(1.02995,0,0,1.02995,74.8704,189.524)">
                        <path d="M160.328,171.372L166.127,182.97L154.529,182.97L160.328,171.372Z" />
                    </g>
                    <g transform="matrix(0.479575,0,0,0.479575,173.576,318.766)">
                        <circle cx="180.21" cy="111.002" r="12.454" />
                    </g>
                    <g transform="matrix(1.02995,0,0,1.02995,114.87,189.524)">
                        <path d="M160.328,171.372L166.127,182.97L154.529,182.97L160.328,171.372Z" />
                    </g>
                    <g transform="matrix(0.479575,0,0,0.479575,213.576,318.766)">
                        <circle cx="180.21" cy="111.002" r="12.454" />
                    </g>
                    <g transform="matrix(1.02995,0,0,1.02995,154.87,189.524)">
                        <path d="M160.328,171.372L166.127,182.97L154.529,182.97L160.328,171.372Z" />
                    </g>
                    <g transform="matrix(0.479575,0,0,0.479575,253.576,318.766)">
                        <circle cx="180.21" cy="111.002" r="12.454" />
                    </g>
                    <g transform="matrix(1.02995,0,0,1.02995,194.87,189.524)">
                        <path d="M160.328,171.372L166.127,182.97L154.529,182.97L160.328,171.372Z" />
                    </g>
                    <g transform="matrix(0.479575,0,0,0.479575,293.576,318.766)">
                        <circle cx="180.21" cy="111.002" r="12.454" />
                    </g>
                    <g transform="matrix(1.02995,0,0,1.02995,234.87,189.524)">
                        <path d="M160.328,171.372L166.127,182.97L154.529,182.97L160.328,171.372Z" />
                    </g>
                    <g transform="matrix(0.479575,0,0,0.479575,333.576,318.766)">
                        <circle cx="180.21" cy="111.002" r="12.454" />
                    </g>
                    <g transform="matrix(1.02995,0,0,1.02995,274.87,189.524)">
                        <path d="M160.328,171.372L166.127,182.97L154.529,182.97L160.328,171.372Z" />
                    </g>
                    <g transform="matrix(0.479575,0,0,0.479575,373.576,318.766)">
                        <circle cx="180.21" cy="111.002" r="12.454" />
                    </g>
                    <g transform="matrix(1.02995,0,0,1.02995,314.87,189.524)">
                        <path d="M160.328,171.372L166.127,182.97L154.529,182.97L160.328,171.372Z" />
                    </g>
                    <g transform="matrix(0.479575,0,0,0.479575,413.576,318.766)">
                        <circle cx="180.21" cy="111.002" r="12.454" />
                    </g>
                    <g transform="matrix(1.02995,0,0,1.02995,354.87,189.524)">
                        <path d="M160.328,171.372L166.127,182.97L154.529,182.97L160.328,171.372Z" />
                    </g>
                    <g transform="matrix(0.479575,0,0,0.479575,453.576,318.766)">
                        <circle cx="180.21" cy="111.002" r="12.454" />
                    </g>
                    <g transform="matrix(1.02995,0,0,1.02995,394.87,189.524)">
                        <path d="M160.328,171.372L166.127,182.97L154.529,182.97L160.328,171.372Z" />
                    </g>
                    <g transform="matrix(0.479575,0,0,0.479575,493.576,318.766)">
                        <circle cx="180.21" cy="111.002" r="12.454" />
                    </g>
                    <g transform="matrix(1.02995,0,0,1.02995,434.87,189.524)">
                        <path d="M160.328,171.372L166.127,182.97L154.529,182.97L160.328,171.372Z" />
                    </g>
                    <g transform="matrix(0.479575,0,0,0.479575,533.576,318.766)">
                        <circle cx="180.21" cy="111.002" r="12.454" />
                    </g>
                    <g transform="matrix(1.02995,0,0,1.02995,474.87,189.524)">
                        <path d="M160.328,171.372L166.127,182.97L154.529,182.97L160.328,171.372Z" />
                    </g>
                    <g transform="matrix(0.479575,0,0,0.479575,573.576,318.766)">
                        <circle cx="180.21" cy="111.002" r="12.454" />
                    </g>
                    <g transform="matrix(1.02995,0,0,1.02995,514.87,189.524)">
                        <path d="M160.328,171.372L166.127,182.97L154.529,182.97L160.328,171.372Z" />
                    </g>
                    <g transform="matrix(0.479575,0,0,0.479575,613.576,318.766)">
                        <circle cx="180.21" cy="111.002" r="12.454" />
                    </g>
                    <g transform="matrix(1.02995,0,0,1.02995,554.87,189.524)">
                        <path d="M160.328,171.372L166.127,182.97L154.529,182.97L160.328,171.372Z" />
                    </g>
                    <g transform="matrix(0.479575,0,0,0.479575,653.576,318.766)">
                        <circle cx="180.21" cy="111.002" r="12.454" />
                    </g>
                    <g transform="matrix(1.02995,0,0,1.02995,594.87,189.524)">
                        <path d="M160.328,171.372L166.127,182.97L154.529,182.97L160.328,171.372Z" />
                    </g>
                    <g transform="matrix(0.479575,0,0,0.479575,693.576,318.766)">
                        <circle cx="180.21" cy="111.002" r="12.454" />
                    </g>
                    <g transform="matrix(1.02995,0,0,1.02995,634.87,189.524)">
                        <path d="M160.328,171.372L166.127,182.97L154.529,182.97L160.328,171.372Z" />
                    </g>
                    <g transform="matrix(0.479575,0,0,0.479575,733.576,318.766)">
                        <circle cx="180.21" cy="111.002" r="12.454" />
                    </g>
                    <g transform="matrix(1.02995,0,0,1.02995,674.87,189.524)">
                        <path d="M160.328,171.372L166.127,182.97L154.529,182.97L160.328,171.372Z" />
                    </g>
                    <g transform="matrix(0.479575,0,0,0.479575,773.576,318.766)">
                        <circle cx="180.21" cy="111.002" r="12.454" />
                    </g>
                    <g transform="matrix(1.02995,0,0,1.02995,714.87,189.524)">
                        <path d="M160.328,171.372L166.127,182.97L154.529,182.97L160.328,171.372Z" />
                    </g>
                    <g transform="matrix(0.479575,0,0,0.479575,813.576,318.766)">
                        <circle cx="180.21" cy="111.002" r="12.454" />
                    </g>
                    <g transform="matrix(1.02995,0,0,1.02995,754.87,189.524)">
                        <path d="M160.328,171.372L166.127,182.97L154.529,182.97L160.328,171.372Z" />
                    </g>
                    <g transform="matrix(0.479575,0,0,0.479575,853.576,318.766)">
                        <circle cx="180.21" cy="111.002" r="12.454" />
                    </g>
                    <g transform="matrix(1.02995,0,0,1.02995,794.87,189.524)">
                        <path d="M160.328,171.372L166.127,182.97L154.529,182.97L160.328,171.372Z" />
                    </g>
                    <g transform="matrix(0.479575,0,0,0.479575,893.576,318.766)">
                        <circle cx="180.21" cy="111.002" r="12.454" />
                    </g>
                    <g transform="matrix(1.02995,0,0,1.02995,834.87,189.524)">
                        <path d="M160.328,171.372L166.127,182.97L154.529,182.97L160.328,171.372Z" />
                    </g>
                    <g transform="matrix(0.479575,0,0,0.479575,933.576,318.766)">
                        <circle cx="180.21" cy="111.002" r="12.454" />
                    </g>
                    <g transform="matrix(1.02995,0,0,1.02995,874.87,189.524)">
                        <path d="M160.328,171.372L166.127,182.97L154.529,182.97L160.328,171.372Z" />
                    </g>
                    <g transform="matrix(0.479575,0,0,0.479575,973.576,318.766)">
                        <circle cx="180.21" cy="111.002" r="12.454" />
                    </g>
                    <g transform="matrix(1.02995,0,0,1.02995,914.87,189.524)">
                        <path d="M160.328,171.372L166.127,182.97L154.529,182.97L160.328,171.372Z" />
                    </g>
                    <g transform="matrix(0.479575,0,0,0.479575,1013.58,318.766)">
                        <circle cx="180.21" cy="111.002" r="12.454" />
                    </g>
                    <g transform="matrix(1.02995,0,0,1.02995,954.87,189.524)">
                        <path d="M160.328,171.372L166.127,182.97L154.529,182.97L160.328,171.372Z" />
                    </g>
                    <g transform="matrix(0.479575,0,0,0.479575,1053.58,318.766)">
                        <circle cx="180.21" cy="111.002" r="12.454" />
                    </g>
                    <g transform="matrix(1.02995,0,0,1.02995,994.87,189.524)">
                        <path d="M160.328,171.372L166.127,182.97L154.529,182.97L160.328,171.372Z" />
                    </g>
                    <g transform="matrix(0.479575,0,0,0.479575,1093.58,318.766)">
                        <circle cx="180.21" cy="111.002" r="12.454" />
                    </g>
                    <g transform="matrix(1.02995,0,0,1.02995,1034.87,189.524)">
                        <path d="M160.328,171.372L166.127,182.97L154.529,182.97L160.328,171.372Z" />
                    </g>
                    <g transform="matrix(0.479575,0,0,0.479575,1133.58,318.766)">
                        <circle cx="180.21" cy="111.002" r="12.454" />
                    </g>
                    <g transform="matrix(1.02995,0,0,1.02995,1074.87,189.524)">
                        <path d="M160.328,171.372L166.127,182.97L154.529,182.97L160.328,171.372Z" />
                    </g>
                    <g transform="matrix(0.479575,0,0,0.479575,1173.58,318.766)">
                        <circle cx="180.21" cy="111.002" r="12.454" />
                    </g>
                    <g transform="matrix(1.02995,0,0,1.02995,1114.87,189.524)">
                        <path d="M160.328,171.372L166.127,182.97L154.529,182.97L160.328,171.372Z" />
                    </g>
                </g>
            </g>
        </g>
    </g>
</svg>
